<svg xmlns="http://www.w3.org/2000/svg" data-name="Ebene 1" viewBox="0 0 378.22 105"><path fill="#1d1d1b" d="M55.55 49.52a5.36 5.36 0 0 0-1.12-1.93 5.09 5.09 0 0 0-1.86-1.25 7.45 7.45 0 0 0-2.72-.44H47.2a.66.66 0 0 0-.37.14.55.55 0 0 0-.18.48v11.41a.56.56 0 0 0 .18.48.64.64 0 0 0 .37.13h2.49a7.91 7.91 0 0 0 2.73-.42 4.91 4.91 0 0 0 1.93-1.24 5.38 5.38 0 0 0 1.19-2 9.25 9.25 0 0 0 .4-2.81 7.66 7.66 0 0 0-.39-2.52zm-1.19 5a4.23 4.23 0 0 1-.9 1.68 3.53 3.53 0 0 1-1.48 1 6.66 6.66 0 0 1-2.19.32h-1.95V47h1.94a5.87 5.87 0 0 1 2.27.38 4.11 4.11 0 0 1 1.47 1.07 4.46 4.46 0 0 1 .86 1.63 7.41 7.41 0 0 1 .28 2.05 8.45 8.45 0 0 1-.3 2.4zm9-4.78v-.15a.36.36 0 0 0 0-.09l-.07-.07a.68.68 0 0 0-.21-.1 1.79 1.79 0 0 0-.35-.09l-.35-.06h-.3a2.22 2.22 0 0 0-.57.07 2 2 0 0 0-.57.25 3.58 3.58 0 0 0-.61.54 6.89 6.89 0 0 0-.71.89v-1.42a.2.2 0 0 0 0-.11.2.2 0 0 0-.08-.08.38.38 0 0 0-.17 0h-.54a.38.38 0 0 0-.17 0 .21.21 0 0 0-.1.08.36.36 0 0 0 0 .11v8.84a.36.36 0 0 0 0 .1.16.16 0 0 0 .1.08.56.56 0 0 0 .18 0h.56a.56.56 0 0 0 .18 0 .18.18 0 0 0 .09-.08.19.19 0 0 0 0-.1v-6c.25-.4.48-.73.68-1a5 5 0 0 1 .59-.66 2.26 2.26 0 0 1 .53-.36 1.35 1.35 0 0 1 .52-.11 2.59 2.59 0 0 1 .41 0l.34.1.27.09a.59.59 0 0 0 .21 0 .12.12 0 0 0 .09 0 .44.44 0 0 0 .06-.1.65.65 0 0 0 0-.16 1.93 1.93 0 0 0 0-.25v-.24zm9 3.52a5.65 5.65 0 0 0-.21-1.56 3.68 3.68 0 0 0-.66-1.31 3.24 3.24 0 0 0-1.16-.89 4 4 0 0 0-1.7-.33 4.3 4.3 0 0 0-1.68.32 3.62 3.62 0 0 0-1.3 1 4.22 4.22 0 0 0-.82 1.51 6.54 6.54 0 0 0-.29 2 6.75 6.75 0 0 0 .3 2 4 4 0 0 0 .81 1.49 3.47 3.47 0 0 0 1.35.91 5.1 5.1 0 0 0 1.82.31 7.06 7.06 0 0 0 1.16-.1c.37-.07.68-.14 1-.22a4.77 4.77 0 0 0 .66-.24 1.27 1.27 0 0 0 .3-.18.32.32 0 0 0 .08-.09.54.54 0 0 0 .05-.11v-.11a.57.57 0 0 0 0-.13 1.85 1.85 0 0 0 0-.25.6.6 0 0 0 0-.16.18.18 0 0 0-.17-.12.19.19 0 0 0-.1 0 .77.77 0 0 0-.33.11l-.59.24a7.53 7.53 0 0 1-.84.23 4.75 4.75 0 0 1-1.11.11 3.71 3.71 0 0 1-1.46-.25 2.38 2.38 0 0 1-1-.73 3.08 3.08 0 0 1-.47-1.14 6.16 6.16 0 0 1-.16-1.48h6a.72.72 0 0 0 .36-.09.57.57 0 0 0 .18-.49v-.23zm-6.57-.11A4.26 4.26 0 0 1 66 52a3.05 3.05 0 0 1 .54-1 2.55 2.55 0 0 1 2-.91 2.47 2.47 0 0 1 2 .79 3.18 3.18 0 0 1 .64 2.2zm14 1.91a2.29 2.29 0 0 0-.51-.68 3.14 3.14 0 0 0-.74-.48 8.75 8.75 0 0 0-.83-.37l-.84-.33a4.55 4.55 0 0 1-.73-.38 1.81 1.81 0 0 1-.52-.51 1.25 1.25 0 0 1-.19-.72 1.58 1.58 0 0 1 .11-.58 1.38 1.38 0 0 1 .34-.46 1.54 1.54 0 0 1 .57-.3 2.76 2.76 0 0 1 .8-.11 2.91 2.91 0 0 1 .82.11 3.4 3.4 0 0 1 .6.24 2.86 2.86 0 0 1 .41.23.49.49 0 0 0 .24.11.14.14 0 0 0 .1 0 .2.2 0 0 0 .07-.1.42.42 0 0 0 0-.16 1.25 1.25 0 0 0 0-.21 1.15 1.15 0 0 0 0-.2v-.14a.37.37 0 0 0 0-.11l-.14-.14-.3-.18a2.91 2.91 0 0 0-.46-.19 4.43 4.43 0 0 0-.6-.14 3.67 3.67 0 0 0-.66-.05 3.91 3.91 0 0 0-1.35.21 2.66 2.66 0 0 0-.94.57 2.32 2.32 0 0 0-.54.79 2.41 2.41 0 0 0-.17.91 2.26 2.26 0 0 0 .19 1 2.3 2.3 0 0 0 .51.71 3.11 3.11 0 0 0 .73.49 7.81 7.81 0 0 0 .83.38l.83.33a4 4 0 0 1 .72.37 1.87 1.87 0 0 1 .51.5 1.19 1.19 0 0 1 .2.69 1.66 1.66 0 0 1-.15.72 1.49 1.49 0 0 1-.43.5 1.87 1.87 0 0 1-.64.29 3.5 3.5 0 0 1-1.81 0 5.84 5.84 0 0 1-.73-.29l-.51-.3a.7.7 0 0 0-.31-.14.15.15 0 0 0-.11 0 .21.21 0 0 0-.08.1 1.22 1.22 0 0 0 0 .17 1.41 1.41 0 0 0 0 .61.51.51 0 0 0 .16.24 1.81 1.81 0 0 0 .33.23 4.67 4.67 0 0 0 .57.24 5.57 5.57 0 0 0 1.61.26 4.38 4.38 0 0 0 1.34-.19 2.94 2.94 0 0 0 1-.54 2.2 2.2 0 0 0 .66-.85 2.61 2.61 0 0 0 .31-1.21 2.12 2.12 0 0 0-.2-1zm9.76-9.81a.23.23 0 0 0 0-.11.16.16 0 0 0-.09-.07.65.65 0 0 0-.18 0 2 2 0 0 0-.57 0h-.18a.16.16 0 0 0-.09.07.22.22 0 0 0 0 .11v5.32a5.3 5.3 0 0 0-1.31-1 3.13 3.13 0 0 0-1.47-.35 3.65 3.65 0 0 0-1.63.34 3.19 3.19 0 0 0-1.18 1 4.34 4.34 0 0 0-.7 1.44 7.94 7.94 0 0 0-.25 2 8.1 8.1 0 0 0 .2 1.81 4.46 4.46 0 0 0 .62 1.49 3.14 3.14 0 0 0 1.1 1 3.41 3.41 0 0 0 1.63.37 3.22 3.22 0 0 0 1.64-.44 6.27 6.27 0 0 0 1.45-1.19v1.27a.21.21 0 0 0 0 .11.16.16 0 0 0 .1.08.5.5 0 0 0 .16.05h.51l.16-.05s.07 0 .08-.08a.2.2 0 0 0 0-.11V45.23zm-1.16 10.6a10.54 10.54 0 0 1-.81.88 4.51 4.51 0 0 1-.73.58 2.45 2.45 0 0 1-.68.32 2.24 2.24 0 0 1-.68.1 2 2 0 0 1-1.18-.33 2.29 2.29 0 0 1-.75-.87 4.13 4.13 0 0 1-.4-1.23 8.36 8.36 0 0 1-.12-1.43 6.7 6.7 0 0 1 .14-1.34 4.08 4.08 0 0 1 .44-1.2 2.42 2.42 0 0 1 .78-.84 2 2 0 0 1 1.15-.33 2.52 2.52 0 0 1 1.43.47A7.34 7.34 0 0 1 88.46 52v3.86zm11.47-2.59a5.65 5.65 0 0 0-.21-1.56 3.7 3.7 0 0 0-.67-1.31 3.24 3.24 0 0 0-1.16-.89 3.92 3.92 0 0 0-1.69-.33 4.39 4.39 0 0 0-1.69.32 3.58 3.58 0 0 0-1.29 1 4.24 4.24 0 0 0-.83 1.51 6.54 6.54 0 0 0-.29 2 7.08 7.08 0 0 0 .35 2 4 4 0 0 0 .82 1.49 3.47 3.47 0 0 0 1.33.91 5 5 0 0 0 1.81.31 7.09 7.09 0 0 0 1.17-.1c.36-.07.68-.14.95-.22a4.33 4.33 0 0 0 .66-.24 1.79 1.79 0 0 0 .31-.18l.08-.09a.49.49 0 0 0 0-.11.36.36 0 0 0 0-.11.57.57 0 0 0 0-.13 1.85 1.85 0 0 0 0-.25v-.16a.24.24 0 0 0-.08-.09.23.23 0 0 0-.11 0 .81.81 0 0 0-.33.11l-.58.24a7.76 7.76 0 0 1-.85.23 4.6 4.6 0 0 1-1.1.11 3.76 3.76 0 0 1-1.46-.28 2.35 2.35 0 0 1-1-.73 2.94 2.94 0 0 1-.54-1.14 6.71 6.71 0 0 1-.16-1.48h6a.66.66 0 0 0 .36-.13.58.58 0 0 0 .19-.49v-.23zm-6.58-.11a3.91 3.91 0 0 1 .29-1.15 2.84 2.84 0 0 1 .53-1 2.55 2.55 0 0 1 2-.91 2.45 2.45 0 0 1 2 .79 3.18 3.18 0 0 1 .64 2.2zm16.25-.15a6.81 6.81 0 0 0-.16-1.6 3.16 3.16 0 0 0-.53-1.16 2.59 2.59 0 0 0-1-.79 3.22 3.22 0 0 0-1.46-.29 3.06 3.06 0 0 0-1.46.38 5.19 5.19 0 0 0-1.49 1.23v-1.26a.2.2 0 0 0 0-.11.15.15 0 0 0-.08-.08.34.34 0 0 0-.17 0h-.54a.42.42 0 0 0-.17 0 .15.15 0 0 0-.09.08.2.2 0 0 0 0 .11v8.84a.19.19 0 0 0 0 .1s0 .06.09.08h.75a.58.58 0 0 0 .17 0 .16.16 0 0 0 .1-.08.19.19 0 0 0 0-.1V52a7.19 7.19 0 0 1 1.41-1.41 2.32 2.32 0 0 1 1.35-.48 2 2 0 0 1 .92.2 1.79 1.79 0 0 1 .65.57 2.52 2.52 0 0 1 .38.88 5.36 5.36 0 0 1 .13 1.33v5.25a.19.19 0 0 0 0 .1.18.18 0 0 0 .09.08.56.56 0 0 0 .18 0h.56a.56.56 0 0 0 .18 0 .18.18 0 0 0 .09-.08.19.19 0 0 0 0-.1V53zM181.49 65V4.47h-5.91v62.1l5.91-1.57zM155.88 8.07c-.68 0-1 .71-1 1.08v.14h1.47a1.67 1.67 0 0 0 1-1l.05-.15h-1.49zM163.09 16.82a6.05 6.05 0 0 1 1.73 3.38l.07.36.16-.33a4.65 4.65 0 0 0 0-3.84 5.91 5.91 0 0 0-1.65-1.89 4.08 4.08 0 0 1-1.56-2.08l-.12-.4-.12.4a3.46 3.46 0 0 0 .39 2.9 8.12 8.12 0 0 0 1.13 1.5zM164.1 13.05a4 4 0 0 1 1.65 2.29l.12.35.12-.35a3.76 3.76 0 0 0-.44-3.07 4.68 4.68 0 0 0-1.5-1.34 3.27 3.27 0 0 1-1.45-1.49l-.17-.38-.06.41A3.31 3.31 0 0 0 163 12a4.45 4.45 0 0 0 1.11 1.05zM161 20.25a6.16 6.16 0 0 1 1.65 4v.45l.2-.4c.54-1.06 1.09-2.54.68-3.63a8.32 8.32 0 0 0-1.45-2.22 6.82 6.82 0 0 1-1.78-3.33l-.07-.42-.17.4a3.71 3.71 0 0 0-.31 3.21 6.8 6.8 0 0 0 1.25 1.94zM158.47 27.31a9.34 9.34 0 0 0-1.12-2.48 7.54 7.54 0 0 1-1.35-3.74v-.44l-.23.37a4.14 4.14 0 0 0-.78 3.31 8.41 8.41 0 0 0 1.21 3l.26.46a6 6 0 0 1 .87 3.26v.42l.24-.35a5.5 5.5 0 0 0 .95-3.33v-.2a2 2 0 0 0-.05-.26z"/><path fill="#1d1d1b" d="M168.73 4.49H135V56c0 6.89 7.42 8.29 12.05 9.32l16.8 4.31.31.08s1.73-.42 7.24-1.93V4.49zm-19.4 7.21c.52 1.28 1.33 1.42 1.88 1.36s1.86-.68 2.4-.76a1.72 1.72 0 0 1 1.69.68c-1.2-.36-2.6.66-3.81 1.07a1.54 1.54 0 0 1-1.67-.3 2.25 2.25 0 0 1-.49-2.05zm12.1 21c1.07 4.82.58 7.38.75 9.22s.79 2.7 1.6 2.78 1.35-.6 1.48-1.79a8.87 8.87 0 0 0-.09-2.07 15.68 15.68 0 0 0-.71-2.89c-.34-1.12-.72-2.38-1-3.58 0 0-.27-1.66-.27-2.23 0-1.34.93-2.44 1.83-3.49.23-.27.76-.94.76-.94a3.89 3.89 0 0 0 .66-1.2c.16.38.33.81.49 1.28a17.61 17.61 0 0 1 .95 3.6 4.89 4.89 0 0 1-1.11 3.17 4.28 4.28 0 0 0-1 2.59c0 .16.07.73.18 1.5.15 1.12.35 2.65.38 3.44a6.53 6.53 0 0 1-.18 1.93 2.32 2.32 0 0 1-2.15 2 2.45 2.45 0 0 1-1.88-.82L162 45l-.07.2a13.65 13.65 0 0 0-.51 3.42c0 1.9 1.38 2.28 2.72 2.64s2.66.73 3 2.48v.32a19.23 19.23 0 0 1 0 2 2.56 2.56 0 0 0-1.68-1.11 2 2 0 0 1-1.61-1.28l-.28-.76v.88a36.73 36.73 0 0 1-.29 5.08v.16H163.69a2.49 2.49 0 0 1 1.35.44 1.8 1.8 0 0 1 .64.82 6.55 6.55 0 0 1 .29.85c.39.23 1 .68 1.08 1a3.56 3.56 0 0 1-1.51.36 2.8 2.8 0 0 1-1.64.95h-.21a2.06 2.06 0 0 1-1.7-.91l-.22.13a1.74 1.74 0 0 1-.15 1.86 2.73 2.73 0 0 1-1.51.92c-.19.36-.56.91-.82 1a3 3 0 0 1-.43-1.28 2.4 2.4 0 0 1-1-1.37 2.2 2.2 0 0 1 .64-2l.4-.34-.65.16a5.19 5.19 0 0 1-1.07.18 1.7 1.7 0 0 1-.87-.24 3.17 3.17 0 0 1-1.07-1.45 3.12 3.12 0 0 1-.15-.39 3.48 3.48 0 0 1-1.19-1 2.84 2.84 0 0 1 1.41-.41h.05a2.62 2.62 0 0 1 1.72-.82 1.66 1.66 0 0 1 .32 0 3.31 3.31 0 0 1 1.6.51l.38.28.1.08.07-.1a2.9 2.9 0 0 0 .26-1.83v-.44c0-.87-.77-1.6-1.63-2.34l-.39-.33c-1.31-1.1-2.78-2.35-2.91-4.2s1.41-3.43 2.41-4.53l.47-.51c.35-.41.48-.63.48-.82 0-.48-2.3-1.25-4.21-1.25-2.06 0-3.49.67-3.62 2a3.07 3.07 0 0 0 1.25 2.89c.59.4 1.1.74 1.1 1.1a1.3 1.3 0 0 1-.5.93 1.8 1.8 0 0 0-.63 1.29c0 .42.34.7.69 1a1.86 1.86 0 0 1 .91 1.46 2.84 2.84 0 0 1 0 .45v.21a3.93 3.93 0 0 1-.74 2c-.07-.43-.55-.79-1.05-1.16a5.26 5.26 0 0 1-1-.84l-.15-.22a1.15 1.15 0 0 1-.09-1l.16-.43-.36.29a12.42 12.42 0 0 0-1 1.02l-.21.26c-.11.12-.55.67-.66.79a1.64 1.64 0 0 0-.54.94v.13h.13a2.83 2.83 0 0 1 1.48 1 3 3 0 0 1 .44 1.94 2.56 2.56 0 0 1 .57 1.21 1 1 0 0 1-.35.05 6 6 0 0 1-1.2-.18h-.05a4.68 4.68 0 0 1-.48.18 3 3 0 0 1-.92.14 3.08 3.08 0 0 1-.61-.06l-.24-.08A2 2 0 0 1 145.1 58h-.25a1.57 1.57 0 0 1-.42 1.35l-.16.17-.2.18a3.76 3.76 0 0 1-2 .36H142c-.2.19-.8.68-1.11.68a2.6 2.6 0 0 1 0-1.27v-.12a2.77 2.77 0 0 1-.44-1.79 2.43 2.43 0 0 1 1.29-1.79l.55-.21h-.97a1.51 1.51 0 0 1-1.4-.51 2.46 2.46 0 0 1-.61-1.73L139 53a2.1 2.1 0 0 1-.52-1 1 1 0 0 1 .45-.07 5.55 5.55 0 0 1 1 .13 3.12 3.12 0 0 1 1.58-.47h.42c.73.09 1.47 1.07 1.67 1.4v.06h.07c.43 0 .89-.48 1.61-1.79a18.19 18.19 0 0 0 1.29-2.75c.1-.92-.49-1.21-1.43-2.15-.2-.19-.79-.8-.79-.8v.38a2.42 2.42 0 0 1-1.26 2.06 2 2 0 0 0-1.09 1.36 8.24 8.24 0 0 1-1.4-3.08 2.9 2.9 0 0 1 1.47-2.28h.06a3.52 3.52 0 0 0 1-.91v-.29c-.16-.66-.65-2.66.54-3.93a6.23 6.23 0 0 1 4-1.72c2.49 0 4.91.33 9.43 2.78h.05a.56.56 0 0 0 .29.1.35.35 0 0 0 .14 0c.08 0 .34-.14-.3-1.7a30.34 30.34 0 0 0-2.81-4.19c-1.29-1.62-2.7-3-3.07-3a.42.42 0 0 0-.44.31c-.13.26-.38.73-1.73 1.41 0-.41-.06-1.31-.61-1.53a1.33 1.33 0 0 0-.53-.11 1.23 1.23 0 0 0-.9.41l-.08.09.09.09a2 2 0 0 1 .75 1.31 1.63 1.63 0 0 1-.34 1q-.15.22-.33.45l-.14.2v.05a2.62 2.62 0 0 1-.09 1.37 3.29 3.29 0 0 1-1.17-.87 2.68 2.68 0 0 1-1.71-.72 1.89 1.89 0 0 1-.25-.31l-.1-.18a2.27 2.27 0 0 1-.12-1.55l-.23-.08a2 2 0 0 1-1.69 1.07h-.18a3.37 3.37 0 0 1-1.65-.6h-.05a5.25 5.25 0 0 1-.85.09.89.89 0 0 1-.47-.09 3.14 3.14 0 0 1 .76-1.15 2.54 2.54 0 0 1 .61-1.65 2.57 2.57 0 0 1 1.82-.68 2.77 2.77 0 0 1 .42 0l.08-.23a2.1 2.1 0 0 1-1.38-1.48v-.1a2.51 2.51 0 0 1 .41-1.73 3.16 3.16 0 0 1 0-1.45 2.66 2.66 0 0 1 1.15.77h.11a2.92 2.92 0 0 1 1.89.5c.3.25.65.81.59 2.07V28H145.26a1 1 0 0 0 .51-.18l.24-.18a15.5 15.5 0 0 0 2.28-2.64v-.06c-.25-.7-2.34-5.27-2.63-5.71l-.29-.44.06.61c.15 1.32-.45 1.66-1.05 2.25a2.92 2.92 0 0 0-1 1.57 5.52 5.52 0 0 1-1.24-2.65 3.18 3.18 0 0 1 .93-2 4.81 4.81 0 0 0 .92-1.4 2.44 2.44 0 0 0-.81-2.07h-.11l-.05.1a1.88 1.88 0 0 1-1.18.86 1.77 1.77 0 0 1-.46.07 4 4 0 0 1-1.48-.39h-.05a4.42 4.42 0 0 1-1.2.27.67.67 0 0 1-.25 0 3.23 3.23 0 0 1 .6-1.51v-.05a2.57 2.57 0 0 1 .23-1.84 2.2 2.2 0 0 1 1.87-1h.07v-.24a1.82 1.82 0 0 1-1.34-1.37 2.47 2.47 0 0 1 .17-1.68v-.05a2.43 2.43 0 0 1-.31-1.27h.05a3.71 3.71 0 0 1 1.26.47h.05a4.52 4.52 0 0 1 .9-.11 1.66 1.66 0 0 1 .82.19 2 2 0 0 1 1.07 1.73h.25a1.86 1.86 0 0 1 1.29-1.54 1.81 1.81 0 0 1 .61-.1 4.08 4.08 0 0 1 1.3.27h.09a4.7 4.7 0 0 1 1.35-.34h.17a2.67 2.67 0 0 1-.53 1.33v.09a2.91 2.91 0 0 1-.08 2 3 3 0 0 1-1.62 1.2c-.15 0-.48.13-.48.13h-.11v.11c.09.39 6.44 7.57 6.82 7.61h.1c.85 0 2.86-2.28 3.76-3.56.69-1 .6-1.19.57-1.27-.13-.32-.32-.48-.56-.48a2 2 0 0 0-1 .53 3.07 3.07 0 0 1-1.65.81c-.61 0-1.23-.62-1.27-1.82 0-.26.1-.26.15-.26a1.53 1.53 0 0 1 .35.08 2.69 2.69 0 0 0 .75.15 1.63 1.63 0 0 0 .45-.07 2 2 0 0 0 .83-.66l.06-.1.07-.1a1.35 1.35 0 0 0 .17-1.07A1.6 1.6 0 0 0 154 11a3.51 3.51 0 0 0-2.18.88 3.45 3.45 0 0 1-.28-.88c0-.16-.07-.31-.12-.46a6.13 6.13 0 0 1 0-1.59 1.45 1.45 0 0 1 .1-.18c.13-.26.13-.26.89-.3.34 0 .83-.05 1.52-.11h.07v-.1c0-.94 1.11-1.4 3.34-1.4.58 0 1.25 0 2 .1a1.12 1.12 0 0 0 .54-.41 1.61 1.61 0 0 1 1.16-.61h.07c.51 0 .88.79 1 1.09v.07h.07c3 .6 5.68 3.56 5.68 8 0 3.13-1.49 7.2-3.51 10.38-.51.8-2.33 3.29-3 4.11-.43.55-.37 1.35 0 3z"/><path fill="#1d1d1b" d="M159.87 21.53a7.24 7.24 0 0 1-1.57-3.43v-.44l-.2.4a3.92 3.92 0 0 0-.45 3.18A8.41 8.41 0 0 0 159 24a6.1 6.1 0 0 1 1.39 3.42v.42l.2-.37a4.92 4.92 0 0 0 .52-3.65 8.89 8.89 0 0 0-1.27-2.26zM192.18 4.47h-6.49v59.31c3.42-1.25 6.49-3.4 6.48-7.83V4.47zM237.55 10.57c0-2.83-.2-3.68-1.87-3.92l-.87-.12a.61.61 0 0 1 0-1c3.38-.2 6.6-.33 10-.33a24.49 24.49 0 0 1 8.74 1.22c5.37 2 8.07 6.59 8.07 11.92a13.3 13.3 0 0 1-7 12.05 19 19 0 0 1-8.9 1.93c-2.54 0-5.08-.32-6.47-.32-1.67 0-3.1 0-5 .12a.79.79 0 0 1-.08-1l.91-.12c2.31-.32 2.39-.81 2.39-5.05V10.57zM240.81 25c0 2.14.12 3.43.79 4.41.88 1.25 2.38 1.65 4.89 1.65 7.7 0 11.17-5.13 11.17-12.65 0-4.45-2.11-12-12.52-12-2.35 0-3.62.32-3.94.56s-.39 1.26-.39 3.08V25zM267.48 20.48c0-1.66 0-1.88-1.13-2.64l-.38-.26c-.17-.17-.17-.64 0-.76a33.71 33.71 0 0 0 4.23-2.09c.21 0 .33.13.33.3v2.47c0 .21 0 .34.13.38 1.46-1.23 3.06-2.55 4.61-2.55a1.74 1.74 0 0 1 1.88 1.7 1.88 1.88 0 0 1-1.8 2 1.58 1.58 0 0 1-.92-.3 3.46 3.46 0 0 0-1.84-.68 1.84 1.84 0 0 0-1.51.85 6.56 6.56 0 0 0-.55 3.28v5.79c0 3.07.09 3.58 1.68 3.71l1.51.13a.75.75 0 0 1-.09 1.06c-2-.08-3.18-.13-4.65-.13s-2.76 0-3.85.13a.74.74 0 0 1-.08-1.06l.79-.13c1.55-.26 1.6-.64 1.6-3.71v-7.49zM282.71 21.8c-1.09 0-1.13.08-1.13 1.15 0 4.3 2.47 8 6.95 8a4.49 4.49 0 0 0 3.85-2.09.55.55 0 0 1 .76.51 7.29 7.29 0 0 1-6.58 4 7.46 7.46 0 0 1-6.07-2.81 9.12 9.12 0 0 1-1.76-5.56c0-5.24 3.4-9.62 8.42-9.62 3.6 0 6 2.51 6 5.06a2.73 2.73 0 0 1-.17 1.11c-.13.26-.71.3-2.47.3zm2.6-1.28c3.1 0 4-.17 4.35-.43.13-.08.25-.25.25-.8 0-1.2-.79-2.69-3.22-2.69s-4.61 2.3-4.65 3.71c0 .08 0 .21.3.21zM306.8 16.09a10 10 0 0 1 .67 3.45.71.71 0 0 1-1 .13c-.71-1.87-2-3.11-3.69-3.11a2.5 2.5 0 0 0-2.68 2.6c0 1.74 1.76 2.68 3.23 3.54 2.21 1.27 4.27 2.72 4.27 5.74 0 3.24-2.93 4.86-6 4.86a6.87 6.87 0 0 1-4.51-1.3 12.79 12.79 0 0 1-.51-4.3.7.7 0 0 1 1 0c.71 2.34 2.05 4.38 4.44 4.38a2.59 2.59 0 0 0 2.8-2.72c0-2-1.67-3-3.22-3.92-2.43-1.4-4.15-2.89-4.15-5.24 0-3.11 2.51-4.85 5.7-4.85a7.29 7.29 0 0 1 3.68.76zM327.45 26.48c0 3.37 0 4.95 1.21 4.95a6.82 6.82 0 0 0 1.8-.43c.3.08.34 1.15 0 1.36a31.09 31.09 0 0 0-5.52 1.37c-.25 0-.46-.13-.46-.34v-.73a4.49 4.49 0 0 0-.09-1.32h-.16a8.65 8.65 0 0 1-5.29 2c-4.64 0-7.74-3.71-7.74-8.18 0-6 4.44-9.79 10.13-9.79a8.49 8.49 0 0 1 2.81.38c.21 0 .25-.26.25-.6V8.68c0-2.51 0-2.77-1.3-3.53l-.42-.26a.65.65 0 0 1 0-.85 29.3 29.3 0 0 0 4.53-1.79.44.44 0 0 1 .41.26c0 1.27-.12 3.4-.12 5.28v18.69zm-3.1-6.39a2.49 2.49 0 0 0-.46-1.66 4.35 4.35 0 0 0-3.52-1.78c-3.81 0-5.78 3.36-5.78 7.07 0 3.87 2.14 7.54 6.24 7.54a5 5 0 0 0 3.23-1.2 2.6 2.6 0 0 0 .29-1.57v-8.4zM336.24 21.8c-1.09 0-1.14.08-1.14 1.15 0 4.3 2.48 8 7 8a4.5 4.5 0 0 0 3.85-2.09.56.56 0 0 1 .76.51 7.3 7.3 0 0 1-6.58 4 7.44 7.44 0 0 1-6.13-2.88 9.12 9.12 0 0 1-1.74-5.49c0-5.24 3.39-9.62 8.41-9.62 3.61 0 5.95 2.51 5.95 5.06a2.56 2.56 0 0 1-.17 1.11c-.12.26-.7.3-2.47.3zm2.59-1.28c3.1 0 4-.17 4.36-.43.13-.08.25-.25.25-.8 0-1.2-.8-2.69-3.22-2.69s-4.61 2.3-4.65 3.71c0 .08 0 .21.29.21zM351.06 20.48c0-1.66 0-1.88-1.13-2.64l-.37-.26c-.17-.17-.17-.64 0-.76a23.4 23.4 0 0 0 4.19-2.09.47.47 0 0 1 .45.3c-.08 1-.08 1.62-.08 2a.45.45 0 0 0 .47.47 11.29 11.29 0 0 1 5.86-2.17c3.47 0 4.89 2.42 4.89 5.28v7.32c0 3.07.09 3.5 1.6 3.71l.92.13a.75.75 0 0 1-.08 1.06c-1.26-.08-2.47-.13-3.94-.13s-2.77 0-3.9.13a.75.75 0 0 1-.08-1.06l.79-.13c1.55-.26 1.59-.64 1.59-3.71v-6.34c0-2.43-1.09-4.22-3.93-4.22a4.52 4.52 0 0 0-3.56 1.49 3.61 3.61 0 0 0-.63 2.56v6.51c0 3.07.08 3.45 1.59 3.71l.76.13a.75.75 0 0 1-.09 1.06c-1.13-.08-2.34-.13-3.81-.13s-2.76 0-3.93.13a.75.75 0 0 1-.09-1.06l.88-.13c1.55-.21 1.59-.64 1.59-3.71v-7.45zM371.21 31a2.35 2.35 0 1 1 4.69 0 2.23 2.23 0 0 1-2.35 2.34 2.3 2.3 0 0 1-2.34-2.34zM237 45.42c0-4.47-.08-5-2.51-5.33l-1-.13a.84.84 0 0 1 .08-1.06c2 .08 3.48.13 5.24.13 1.46 0 4.14-.34 6.82-.34a20 20 0 0 1 9.38 2 14 14 0 0 1 7.33 12.69c0 5.63-2.85 10.48-8.5 12.57a25.9 25.9 0 0 1-9.21 1.28c-3.56 0-7-.13-10.51-.34a.65.65 0 0 1-.05-1.07l.93-.12c1.75-.26 2-1.16 2-4.14V45.42zm3.44 16.69c0 1.92.08 3 .41 3.24s1.68.6 4.15.6c11 0 13.19-7.93 13.19-12.61 0-7.92-3.64-13.33-11.76-13.33-2.64 0-4.23.42-5.16 1.74-.71 1-.83 2.39-.83 4.65v15.71zM267.48 43.8c0-3.07-.05-3.45-1.59-3.71l-.8-.12a.76.76 0 0 1 .08-1.07c1.09.08 2.35.13 3.85.13s2.68-.05 4.66-.13a.77.77 0 0 1 .08 1.07l-1.51.12c-1.59.13-1.67.64-1.67 3.71v5.79a6.58 6.58 0 0 0 .54 3.28 1.84 1.84 0 0 0 1.51.85 3.38 3.38 0 0 0 1.84-.68 1.57 1.57 0 0 1 .92-.29 1.87 1.87 0 0 1 1.8 2 1.73 1.73 0 0 1-1.88 1.7c-1.55 0-3.15-1.31-4.61-2.55-.09 0-.12.17-.12.38v2.42c0 .18-.13.26-.34.3a35.14 35.14 0 0 0-4.24-2.09c-.21-.12-.21-.59 0-.76l.38-.25c1.13-.77 1.13-1 1.13-2.65V43.8zM290.46 49.93c1.76 0 2.35 0 2.47.3a2.73 2.73 0 0 1 .17 1.11c0 2.56-2.35 5.06-6 5.06-5 0-8.42-4.38-8.42-9.62a9.16 9.16 0 0 1 1.76-5.54 7.49 7.49 0 0 1 6.07-2.81 7.31 7.31 0 0 1 6.58 4 .56.56 0 0 1-.75.52 4.48 4.48 0 0 0-3.86-2.09c-4.48 0-6.95 3.66-6.95 8 0 1.07 0 1.15 1.13 1.15zm-8.12 1.28c-.3 0-.3.13-.3.21 0 1.41 2.18 3.71 4.65 3.71s3.23-1.49 3.23-2.69c0-.55-.13-.72-.26-.8-.33-.26-1.25-.43-4.35-.43zM303.12 56.4c-3.19 0-5.7-1.74-5.7-4.85 0-2.34 1.72-3.83 4.15-5.24 1.55-.89 3.22-2 3.22-3.92a2.59 2.59 0 0 0-2.8-2.72c-2.39 0-3.73 2-4.44 4.38a.7.7 0 0 1-1 0 12.83 12.83 0 0 1 .51-4.3 6.87 6.87 0 0 1 4.48-1.28c3.1 0 6 1.62 6 4.86 0 3-2.06 4.47-4.27 5.75-1.47.85-3.23 1.79-3.23 3.53a2.49 2.49 0 0 0 2.68 2.6c1.72 0 3-1.23 3.69-3.11a.72.72 0 0 1 1 .13 10 10 0 0 1-.67 3.45 7.29 7.29 0 0 1-3.68.76zM327.45 63.94c0 1.88.09 4 .12 5.29a.45.45 0 0 1-.41.25 31.48 31.48 0 0 0-4.53-1.79.65.65 0 0 1 0-.85l.42-.25c1.26-.77 1.31-1 1.31-3.54v-6.43c0-.34-.05-.59-.26-.59a8.87 8.87 0 0 1-2.81.37c-5.69 0-10.13-3.83-10.13-9.79 0-4.47 3.1-8.18 7.74-8.18a8.71 8.71 0 0 1 5.29 2h.17a5 5 0 0 0 .08-1.32v-.72c0-.21.21-.34.46-.34a31.14 31.14 0 0 0 5.52 1.36c.38.21.34 1.28 0 1.36a6.76 6.76 0 0 0-1.8-.42c-1.17 0-1.21 1.57-1.21 4.94v18.65zm-3.09-20.69a2.63 2.63 0 0 0-.3-1.58 5.07 5.07 0 0 0-3.23-1.19c-4.1 0-6.24 3.66-6.24 7.54 0 3.7 2 7.07 5.78 7.07a4.36 4.36 0 0 0 3.52-1.79 2.49 2.49 0 0 0 .47-1.66v-8.39zM344 49.93c1.76 0 2.34 0 2.47.3a2.79 2.79 0 0 1 .16 1.11c0 2.56-2.34 5.06-5.95 5.06-5 0-8.41-4.38-8.41-9.62a9.23 9.23 0 0 1 1.73-5.54 7.47 7.47 0 0 1 6.07-2.81 7.32 7.32 0 0 1 6.58 4 .57.57 0 0 1-.76.52 4.47 4.47 0 0 0-3.85-2.09c-4.48 0-6.95 3.66-6.95 8 0 1.07 0 1.15 1.13 1.15zm-8.13 1.28c-.29 0-.29.13-.29.21 0 1.41 2.17 3.71 4.65 3.71s3.22-1.49 3.22-2.69c0-.55-.12-.72-.25-.8-.33-.26-1.26-.43-4.36-.43zM351.06 43.8c0-3.07 0-3.49-1.58-3.71l-.89-.12a.77.77 0 0 1 .09-1.07c1.17.09 2.43.13 3.93.13s2.68 0 3.81-.13a.76.76 0 0 1 .09 1.07l-.76.12c-1.5.26-1.59.64-1.59 3.71v6.52a3.64 3.64 0 0 0 .63 2.55 4.54 4.54 0 0 0 3.56 1.49c2.84 0 3.94-1.79 3.94-4.22V43.8c0-3.07-.05-3.45-1.6-3.71l-.79-.09a.77.77 0 0 1 .1-1.1c1.13.09 2.39.13 3.9.13s2.68 0 3.94-.13a.77.77 0 0 1 .06 1.1l-.92.12c-1.51.22-1.6.64-1.6 3.71v7.33c0 2.85-1.42 5.27-4.89 5.27a11.29 11.29 0 0 1-5.86-2.17.45.45 0 0 0-.47.47 19.94 19.94 0 0 0 .09 2 .49.49 0 0 1-.46.3 24.09 24.09 0 0 0-4.19-2.09c-.21-.12-.21-.59 0-.76l.37-.25c1.13-.77 1.13-1 1.13-2.65V43.8zM373.55 38.43a2.24 2.24 0 0 1 2.35 2.35 2.35 2.35 0 1 1-4.69 0 2.3 2.3 0 0 1 2.34-2.35zM215.1 101.92h-1.11V2.25h1.11v99.67zM11.35 14.94a3.63 3.63 0 0 1-.35 1.58 3.4 3.4 0 0 1-.91 1.18 4.09 4.09 0 0 1-1.37.73 5.7 5.7 0 0 1-1.69.24 6.23 6.23 0 0 1-1.18-.11 6.6 6.6 0 0 1-1-.26 5.63 5.63 0 0 1-.66-.3 2 2 0 0 1-.4-.29.63.63 0 0 1-.16-.29 1.68 1.68 0 0 1-.06-.49 3.16 3.16 0 0 1 0-.35 1.46 1.46 0 0 1 .06-.23.34.34 0 0 1 .1-.13.29.29 0 0 1 .14 0 .79.79 0 0 1 .38.17 6.68 6.68 0 0 0 .64.36 6.19 6.19 0 0 0 .94.36 4.18 4.18 0 0 0 1.28.17 3.18 3.18 0 0 0 1-.14 2.43 2.43 0 0 0 .78-.42 1.71 1.71 0 0 0 .5-.66 2.08 2.08 0 0 0 .18-.89 1.59 1.59 0 0 0-.25-.91 2.26 2.26 0 0 0-.64-.67 6.05 6.05 0 0 0-.89-.59l-1-.49a10.48 10.48 0 0 1-1-.55 4.54 4.54 0 0 1-.91-.71 3.78 3.78 0 0 1-.65-1A3.33 3.33 0 0 1 3.89 9a3.38 3.38 0 0 1 .28-1.41 3.05 3.05 0 0 1 .8-1 3.68 3.68 0 0 1 1.23-.71 5.32 5.32 0 0 1 1.52-.22 4.89 4.89 0 0 1 .85.08 4.92 4.92 0 0 1 .8.19 4.67 4.67 0 0 1 .63.27 2.21 2.21 0 0 1 .38.25.72.72 0 0 1 .13.14.57.57 0 0 1 0 .14.6.6 0 0 1 0 .2 2.63 2.63 0 0 1 0 .3 3.11 3.11 0 0 1 0 .32v.23a.25.25 0 0 1-.09.13.17.17 0 0 1-.12 0 .88.88 0 0 1-.3-.09l-.56-.31a4.87 4.87 0 0 0-.78-.31 3.64 3.64 0 0 0-1-.14 2.78 2.78 0 0 0-.92.14 1.8 1.8 0 0 0-.65.38 1.51 1.51 0 0 0-.38.55 2 2 0 0 0-.13.69 1.64 1.64 0 0 0 .25.9 2.46 2.46 0 0 0 .65.68 7.2 7.2 0 0 0 .92.54l1.06.49a11.69 11.69 0 0 1 1 .55 4 4 0 0 1 .92.7 3.28 3.28 0 0 1 .66 1 3.21 3.21 0 0 1 .31 1.26zM20.92 18.24a.18.18 0 0 1 0 .13.19.19 0 0 1-.12.09.64.64 0 0 1-.23.06 1.72 1.72 0 0 1-.34 0 2 2 0 0 1-.37 0 .58.58 0 0 1-.22-.06.19.19 0 0 1-.12-.09.25.25 0 0 1 0-.13v-1.16A5.4 5.4 0 0 1 18 18.29a3.23 3.23 0 0 1-1.48.38 3.42 3.42 0 0 1-1.52-.29 2.66 2.66 0 0 1-1-.8 3.39 3.39 0 0 1-.53-1.17 7 7 0 0 1-.16-1.63V9.45a.18.18 0 0 1 0-.13.24.24 0 0 1 .13-.1.76.76 0 0 1 .25-.06h.78a.7.7 0 0 1 .25.06.28.28 0 0 1 .13.1.18.18 0 0 1 0 .13v5.12a5.74 5.74 0 0 0 .11 1.23 2.21 2.21 0 0 0 .35.79 1.5 1.5 0 0 0 .58.51 1.77 1.77 0 0 0 .82.18 2 2 0 0 0 1.2-.43 6.51 6.51 0 0 0 1.28-1.26V9.45a.25.25 0 0 1 0-.13.34.34 0 0 1 .13-.1.83.83 0 0 1 .25-.06h.79a.7.7 0 0 1 .24.06.39.39 0 0 1 .14.1.25.25 0 0 1 0 .13zM31.76 13.71a7.73 7.73 0 0 1-.25 2.07 4.69 4.69 0 0 1-.73 1.56 3.27 3.27 0 0 1-1.2 1 3.69 3.69 0 0 1-1.63.35 3.24 3.24 0 0 1-.72-.08 2.69 2.69 0 0 1-.65-.24 3.83 3.83 0 0 1-.63-.42c-.21-.17-.43-.37-.67-.6v4.4a.28.28 0 0 1 0 .13.27.27 0 0 1-.13.1.7.7 0 0 1-.25.06h-.79a.83.83 0 0 1-.25-.06.2.2 0 0 1-.12-.1.2.2 0 0 1 0-.13V9.45a.29.29 0 0 1 0-.14.19.19 0 0 1 .12-.09.64.64 0 0 1 .14-.06h.67a.64.64 0 0 1 .22.06.25.25 0 0 1 .13.09.29.29 0 0 1 0 .14v1.18a9.64 9.64 0 0 1 .77-.71 4.66 4.66 0 0 1 .75-.5 3.36 3.36 0 0 1 .77-.31 3.7 3.7 0 0 1 .83-.1 3.45 3.45 0 0 1 1.64.37 3.13 3.13 0 0 1 1.09 1 4.39 4.39 0 0 1 .62 1.5 8.1 8.1 0 0 1 .27 1.83zm-1.67.18a9.25 9.25 0 0 0-.1-1.3 3.78 3.78 0 0 0-.36-1.12 2.11 2.11 0 0 0-.67-.78 1.83 1.83 0 0 0-1.05-.29 2.16 2.16 0 0 0-.62.09 2.65 2.65 0 0 0-.62.29 4.78 4.78 0 0 0-.66.53 8.85 8.85 0 0 0-.73.81v3.49a6.92 6.92 0 0 0 1.27 1.24 2.11 2.11 0 0 0 1.26.43 1.8 1.8 0 0 0 1.05-.28 2.29 2.29 0 0 0 .7-.78 3.83 3.83 0 0 0 .4-1.09 5.71 5.71 0 0 0 .13-1.24zM42.13 13.71a7.73 7.73 0 0 1-.25 2.07 4.69 4.69 0 0 1-.73 1.56 3.27 3.27 0 0 1-1.2 1 3.69 3.69 0 0 1-1.63.35 3.24 3.24 0 0 1-.72-.08 2.69 2.69 0 0 1-.65-.24 3.83 3.83 0 0 1-.63-.42c-.21-.17-.43-.37-.67-.6v4.4a.28.28 0 0 1 0 .13.27.27 0 0 1-.13.1.7.7 0 0 1-.25.06h-.79a.83.83 0 0 1-.28-.04.2.2 0 0 1-.12-.1.2.2 0 0 1 0-.13V9.45a.29.29 0 0 1 0-.14.19.19 0 0 1 .12-.09.64.64 0 0 1 .22-.06h.67a.64.64 0 0 1 .22.06.19.19 0 0 1 .12.09.21.21 0 0 1 0 .14v1.18a9.64 9.64 0 0 1 .77-.71 4.66 4.66 0 0 1 .75-.5 3.36 3.36 0 0 1 .77-.31 3.7 3.7 0 0 1 .83-.1 3.45 3.45 0 0 1 1.64.37 3.13 3.13 0 0 1 1.09 1 4.39 4.39 0 0 1 .62 1.5 8.1 8.1 0 0 1 .23 1.83zm-1.67.18a9.25 9.25 0 0 0-.1-1.3 3.78 3.78 0 0 0-.36-1.12 2.11 2.11 0 0 0-.67-.78 1.83 1.83 0 0 0-1-.29 2.16 2.16 0 0 0-.62.09 2.65 2.65 0 0 0-.62.29 4.78 4.78 0 0 0-.66.53 8.85 8.85 0 0 0-.73.81v3.49a6.92 6.92 0 0 0 1.27 1.24 2.11 2.11 0 0 0 1.26.43 1.82 1.82 0 0 0 1-.29 2.29 2.29 0 0 0 .7-.78 3.83 3.83 0 0 0 .4-1.09 5.71 5.71 0 0 0 .13-1.23zM52.7 13.75a6.63 6.63 0 0 1-.29 2 4.37 4.37 0 0 1-.84 1.55 3.82 3.82 0 0 1-1.41 1 4.76 4.76 0 0 1-2 .37 5.19 5.19 0 0 1-1.89-.32 3.57 3.57 0 0 1-1.27-.94 4 4 0 0 1-.8-1.49 6.83 6.83 0 0 1-.26-2 6.85 6.85 0 0 1 .27-2 4.33 4.33 0 0 1 .79-1.53 3.82 3.82 0 0 1 1.41-1 4.93 4.93 0 0 1 2-.36 5.19 5.19 0 0 1 1.89.32 3.5 3.5 0 0 1 1.34.94 4 4 0 0 1 .81 1.5 6.68 6.68 0 0 1 .25 1.96zm-1.7.11a6.43 6.43 0 0 0-.14-1.35 3.2 3.2 0 0 0-.44-1.12 2.2 2.2 0 0 0-.82-.75 3.18 3.18 0 0 0-2.54 0 2.2 2.2 0 0 0-.85.72 3.17 3.17 0 0 0-.5 1.1 5.47 5.47 0 0 0-.16 1.39 6.44 6.44 0 0 0 .13 1.35 3.27 3.27 0 0 0 .44 1.11A2.18 2.18 0 0 0 47 17a2.66 2.66 0 0 0 1.3.28 2.79 2.79 0 0 0 1.23-.25 2.27 2.27 0 0 0 .85-.71 3.09 3.09 0 0 0 .5-1.1 6 6 0 0 0 .12-1.36zM60.09 10v.36a1.07 1.07 0 0 1 0 .23.41.41 0 0 1-.08.13.19.19 0 0 1-.12 0 .93.93 0 0 1-.19 0l-.25-.09-.32-.09a2.25 2.25 0 0 0-.38 0 1.36 1.36 0 0 0-.48.09 2.11 2.11 0 0 0-.49.33 3.57 3.57 0 0 0-.54.59c-.19.25-.4.55-.63.91v5.78a.18.18 0 0 1 0 .13.23.23 0 0 1-.12.09.7.7 0 0 1-.25.06 2.3 2.3 0 0 1-.4 0 2.18 2.18 0 0 1-.39 0 .76.76 0 0 1-.25-.06.25.25 0 0 1-.13-.09.25.25 0 0 1 0-.13V9.45a.25.25 0 0 1 0-.13.25.25 0 0 1 .12-.1.58.58 0 0 1 .22-.06H56a.58.58 0 0 1 .22.06.27.27 0 0 1 .11.1.25.25 0 0 1 0 .13v1.28a8.08 8.08 0 0 1 .68-.86 5 5 0 0 1 .6-.52 1.84 1.84 0 0 1 .57-.27 2.6 2.6 0 0 1 .63-.08h.29a2 2 0 0 1 .33.05l.32.09a.53.53 0 0 1 .2.1.32.32 0 0 1 .08.09v.11a1 1 0 0 1 0 .2c.06.12.06.24.06.36zM67 17.6a2.45 2.45 0 0 1 0 .4.53.53 0 0 1-.12.25.83.83 0 0 1-.24.15 2.42 2.42 0 0 1-.35.11l-.43.07a3.74 3.74 0 0 1-1.62-.15 1.89 1.89 0 0 1-.8-.55 2.15 2.15 0 0 1-.45-.92 5.27 5.27 0 0 1-.14-1.33v-5.09h-1.28a.28.28 0 0 1-.24-.16 1.08 1.08 0 0 1-.09-.51 1.35 1.35 0 0 1 0-.31.53.53 0 0 1 .06-.21.25.25 0 0 1 .1-.12.35.35 0 0 1 .14 0h1.26V7.11a.28.28 0 0 1 0-.13.24.24 0 0 1 .13-.1 1 1 0 0 1 .25-.07h.79a1 1 0 0 1 .24.07.34.34 0 0 1 .13.1.28.28 0 0 1 0 .13V9.2h2.25a.29.29 0 0 1 .14 0 .25.25 0 0 1 .1.12.73.73 0 0 1 .07.21 2.54 2.54 0 0 1 0 .31 1.08 1.08 0 0 1-.09.51.28.28 0 0 1-.24.16h-2.16v4.9a2.79 2.79 0 0 0 .27 1.37 1 1 0 0 0 1 .46 1.64 1.64 0 0 0 .4 0l.31-.09.23-.1a.45.45 0 0 1 .18 0h.09a.15.15 0 0 1 .07.1 1.06 1.06 0 0 1 0 .18 2.36 2.36 0 0 1 .04.27zM76.33 13.46a.68.68 0 0 1-.19.55.69.69 0 0 1-.43.16h-5.79a5.87 5.87 0 0 0 .14 1.32 2.55 2.55 0 0 0 .5 1 2.13 2.13 0 0 0 .89.65 3.51 3.51 0 0 0 1.34.22 5.42 5.42 0 0 0 1.12-.1 7.76 7.76 0 0 0 .85-.23c.24-.09.44-.16.59-.23a.9.9 0 0 1 .35-.1.27.27 0 0 1 .12 0 .2.2 0 0 1 .08.1.74.74 0 0 1 .1.2 2.81 2.81 0 0 1 0 .3 1.41 1.41 0 0 1 0 .22.88.88 0 0 1 0 .17.5.5 0 0 1-.05.13.31.31 0 0 1-.09.11 1.06 1.06 0 0 1-.32.18 4.69 4.69 0 0 1-.68.24 8.48 8.48 0 0 1-1 .21 7.34 7.34 0 0 1-1.18.09 5.53 5.53 0 0 1-1.9-.3 3.49 3.49 0 0 1-1.37-.9 3.91 3.91 0 0 1-.84-1.5 6.87 6.87 0 0 1-.28-2.09 6.72 6.72 0 0 1 .29-2 4.37 4.37 0 0 1 .85-1.53 3.58 3.58 0 0 1 1.33-1 4.76 4.76 0 0 1 3.51 0 3.39 3.39 0 0 1 1.2.9 3.45 3.45 0 0 1 .68 1.32 5.59 5.59 0 0 1 .22 1.61zM74.71 13a3 3 0 0 0-.56-2 2.17 2.17 0 0 0-1.77-.72 2.32 2.32 0 0 0-1 .23 2.19 2.19 0 0 0-.75.59 2.82 2.82 0 0 0-.48.87 3.48 3.48 0 0 0-.18 1zM86.19 18.24a.23.23 0 0 1 0 .14.2.2 0 0 1-.11.09 1 1 0 0 1-.22.05 1.62 1.62 0 0 1-.33 0 1.78 1.78 0 0 1-.35 0 1 1 0 0 1-.22-.05.25.25 0 0 1-.13-.09.33.33 0 0 1 0-.14v-1.16a5.88 5.88 0 0 1-1.44 1.17 3.27 3.27 0 0 1-1.63.42 3.35 3.35 0 0 1-1.76-.38 3.09 3.09 0 0 1-1.11-1 4.37 4.37 0 0 1-.62-1.51A8.19 8.19 0 0 1 78.1 14a7.6 7.6 0 0 1 .25-2 4.49 4.49 0 0 1 .72-1.56 3.17 3.17 0 0 1 1.19-1A3.66 3.66 0 0 1 81.89 9a2.88 2.88 0 0 1 1.41.34 4.83 4.83 0 0 1 1.27 1V5.23a.31.31 0 0 1 0-.13.28.28 0 0 1 .13-.1l.3-.06h.79L86 5a.34.34 0 0 1 .13.1.24.24 0 0 1 0 .13zm-1.62-6.18a6.63 6.63 0 0 0-1.27-1.24 2.19 2.19 0 0 0-1.3-.42 1.88 1.88 0 0 0-1 .29 2.36 2.36 0 0 0-.7.77 4.24 4.24 0 0 0-.39 1.09 6.26 6.26 0 0 0-.12 1.23 9.36 9.36 0 0 0 .1 1.3 3.68 3.68 0 0 0 .36 1.12 2.3 2.3 0 0 0 .67.8 1.86 1.86 0 0 0 1.06.29 2.57 2.57 0 0 0 .62-.08 2.29 2.29 0 0 0 .61-.3 3.7 3.7 0 0 0 .65-.53 8.85 8.85 0 0 0 .73-.81zM101.77 13.73a8 8 0 0 1-.24 2 4.7 4.7 0 0 1-.74 1.56 3.3 3.3 0 0 1-1.18 1 3.64 3.64 0 0 1-1.62.34 3.79 3.79 0 0 1-.77-.08 3.16 3.16 0 0 1-.7-.27 4.15 4.15 0 0 1-.68-.47c-.23-.19-.47-.42-.73-.68v1.07a.23.23 0 0 1 0 .14.19.19 0 0 1-.12.09 1 1 0 0 1-.22.05 1.67 1.67 0 0 1-.34 0 1.62 1.62 0 0 1-.33 0l-.23-.05a.2.2 0 0 1-.11-.09.32.32 0 0 1 0-.14v-13a.28.28 0 0 1 0-.13.27.27 0 0 1 .13-.1.7.7 0 0 1 .25-.06h.79a.7.7 0 0 1 .24.06.27.27 0 0 1 .13.1.2.2 0 0 1 0 .13v5.27a6.54 6.54 0 0 1 .76-.68 4.29 4.29 0 0 1 .71-.44 3.35 3.35 0 0 1 .71-.25 3.5 3.5 0 0 1 .74-.1 3.37 3.37 0 0 1 1.64.38 3.26 3.26 0 0 1 1.1 1 4.6 4.6 0 0 1 .62 1.5 8.19 8.19 0 0 1 .19 1.85zm-1.67.18a7.87 7.87 0 0 0-.1-1.3 3.75 3.75 0 0 0-.36-1.13 2.14 2.14 0 0 0-.64-.78 1.76 1.76 0 0 0-1-.3 2.21 2.21 0 0 0-.62.09 2 2 0 0 0-.62.29 5.43 5.43 0 0 0-.65.53 6.8 6.8 0 0 0-.72.81v3.5a6.37 6.37 0 0 0 1.28 1.24 2.19 2.19 0 0 0 1.26.42 1.8 1.8 0 0 0 1-.29 2.3 2.3 0 0 0 .7-.78 3.65 3.65 0 0 0 .39-1.08 6.23 6.23 0 0 0 .08-1.22zM108 18.48l-1.17 3.24a.48.48 0 0 1-.3.24 2.54 2.54 0 0 1-.72.08 2.22 2.22 0 0 1-.41 0 .45.45 0 0 1-.24-.08.22.22 0 0 1-.1-.15.57.57 0 0 1 0-.24l1.21-3.06a.42.42 0 0 1-.16-.12.52.52 0 0 1-.11-.19l-3.13-8.4a.78.78 0 0 1-.08-.32.19.19 0 0 1 .08-.18.45.45 0 0 1 .25-.1H104.05a.77.77 0 0 1 .26.06.23.23 0 0 1 .14.11 1.83 1.83 0 0 1 .1.2l2.51 7 2.43-7.09a.45.45 0 0 1 .14-.24.81.81 0 0 1 .25-.08H110.8a.49.49 0 0 1 .26.1.2.2 0 0 1 .09.18.88.88 0 0 1-.06.29zM50.62 37.6a2.45 2.45 0 0 1 0 .44.53.53 0 0 1-.12.25.91.91 0 0 1-.23.15l-.36.11-.43.07a3.74 3.74 0 0 1-1.62-.15 1.89 1.89 0 0 1-.8-.55 2.15 2.15 0 0 1-.45-.92 5.27 5.27 0 0 1-.14-1.33v-5.13H45.2a.28.28 0 0 1-.24-.16 1.08 1.08 0 0 1-.09-.51 1.35 1.35 0 0 1 0-.31.76.76 0 0 1 .06-.21.25.25 0 0 1 .1-.12.37.37 0 0 1 .15 0h1.22v-2.12a.28.28 0 0 1 0-.13.28.28 0 0 1 .13-.1 1 1 0 0 1 .25-.07h.79a1 1 0 0 1 .24.07.34.34 0 0 1 .19.12.28.28 0 0 1 0 .13v2.07h2.25a.29.29 0 0 1 .14 0 .25.25 0 0 1 .1.12.73.73 0 0 1 .07.21 2.54 2.54 0 0 1 0 .31 1.08 1.08 0 0 1-.09.51.28.28 0 0 1-.24.16H48v4.9a2.79 2.79 0 0 0 .27 1.37 1 1 0 0 0 1 .46 1.64 1.64 0 0 0 .4 0l.31-.09.24-.1a.38.38 0 0 1 .17 0h.09a.15.15 0 0 1 .07.1 1.06 1.06 0 0 1 .05.18 2.36 2.36 0 0 1 .02.27zM60.07 38.24a.18.18 0 0 1 0 .13.19.19 0 0 1-.12.09.7.7 0 0 1-.25.06 2.18 2.18 0 0 1-.39 0 2.36 2.36 0 0 1-.4 0 .7.7 0 0 1-.24-.06.25.25 0 0 1-.13-.09.18.18 0 0 1 0-.13v-5.15a5 5 0 0 0-.12-1.21 2.36 2.36 0 0 0-.34-.79 1.5 1.5 0 0 0-.58-.51 1.94 1.94 0 0 0-.82-.17 2 2 0 0 0-1.21.43 6 6 0 0 0-1.27 1.26v6.14a.25.25 0 0 1 0 .13.25.25 0 0 1-.13.09.7.7 0 0 1-.24.06 4 4 0 0 1-.8 0 .7.7 0 0 1-.24-.06.19.19 0 0 1-.13-.09.25.25 0 0 1 0-.13v-13a.28.28 0 0 1 0-.13.2.2 0 0 1 .13-.1.7.7 0 0 1 .24-.06h.8A.7.7 0 0 1 54 25a.27.27 0 0 1 .13.1.28.28 0 0 1 0 .13v5.27a5.14 5.14 0 0 1 1.39-1.09 3.08 3.08 0 0 1 1.41-.41 3.31 3.31 0 0 1 1.48.3 2.63 2.63 0 0 1 1 .8 3.16 3.16 0 0 1 .53 1.16 6.93 6.93 0 0 1 .16 1.62zM70.34 33.46a.68.68 0 0 1-.19.55.67.67 0 0 1-.43.16h-5.79a5.32 5.32 0 0 0 .15 1.32 2.41 2.41 0 0 0 .49 1 2.19 2.19 0 0 0 .89.65 3.55 3.55 0 0 0 1.34.22 5.42 5.42 0 0 0 1.12-.1 7.76 7.76 0 0 0 .85-.23c.24-.09.44-.16.59-.23a.9.9 0 0 1 .35-.1.24.24 0 0 1 .12 0 .2.2 0 0 1 .08.1.74.74 0 0 1 .09.2 2.81 2.81 0 0 1 0 .3 1.41 1.41 0 0 1 0 .22.88.88 0 0 1 0 .17.5.5 0 0 1 0 .13.31.31 0 0 1-.09.11 1.1 1.1 0 0 1-.31.18 5.37 5.37 0 0 1-.69.24 8.48 8.48 0 0 1-1 .21 7.34 7.34 0 0 1-1.18.09 5.53 5.53 0 0 1-1.9-.3 3.49 3.49 0 0 1-1.37-.9 3.91 3.91 0 0 1-.84-1.5 6.87 6.87 0 0 1-.28-2.09 6.72 6.72 0 0 1 .29-2 4.37 4.37 0 0 1 .85-1.53 3.58 3.58 0 0 1 1.33-1 4.27 4.27 0 0 1 1.67-.33 4.22 4.22 0 0 1 1.76.33 3.39 3.39 0 0 1 1.2.9 3.45 3.45 0 0 1 .68 1.32 5.59 5.59 0 0 1 .22 1.61zM68.72 33a3 3 0 0 0-.56-2 2.17 2.17 0 0 0-1.77-.72 2.32 2.32 0 0 0-1 .23 2.19 2.19 0 0 0-.75.59 2.82 2.82 0 0 0-.48.87 3.48 3.48 0 0 0-.18 1zM85.94 36.7a2.26 2.26 0 0 1 0 .27v.21a.69.69 0 0 1-.07.15.77.77 0 0 1-.13.17l-.41.3a5.64 5.64 0 0 1-.78.39 7.46 7.46 0 0 1-1.06.32 6.09 6.09 0 0 1-1.32.13 5.82 5.82 0 0 1-2.22-.41A4.53 4.53 0 0 1 78.22 37a5.52 5.52 0 0 1-1.07-2 9.81 9.81 0 0 1 0-5.51 6.07 6.07 0 0 1 1.13-2.09 4.9 4.9 0 0 1 1.76-1.3 5.53 5.53 0 0 1 2.26-.45 6.14 6.14 0 0 1 1.06.1 7.38 7.38 0 0 1 1 .26 5.68 5.68 0 0 1 .78.36 2.29 2.29 0 0 1 .47.34 1 1 0 0 1 .17.2.77.77 0 0 1 .07.16v.22a2.81 2.81 0 0 1 0 .3 3 3 0 0 1 0 .34.77.77 0 0 1-.06.23.25.25 0 0 1-.09.13.21.21 0 0 1-.13.05.84.84 0 0 1-.39-.19 4.89 4.89 0 0 0-.63-.42 4.34 4.34 0 0 0-.94-.42 4 4 0 0 0-1.33-.19 3.54 3.54 0 0 0-1.54.33 3.38 3.38 0 0 0-1.18 1 4.85 4.85 0 0 0-.76 1.6 7.85 7.85 0 0 0-.27 2.15 7.62 7.62 0 0 0 .26 2.13 4.42 4.42 0 0 0 .74 1.54 3.22 3.22 0 0 0 1.2.94 3.87 3.87 0 0 0 1.6.32 4.37 4.37 0 0 0 1.34-.13 5.43 5.43 0 0 0 1-.41c.26-.16.48-.3.65-.42a.82.82 0 0 1 .4-.18.22.22 0 0 1 .12 0 .18.18 0 0 1 .08.12.89.89 0 0 1 .05.23c-.03.08-.03.21-.03.36zM89.67 26.48a1.06 1.06 0 0 1-.21.77 1.13 1.13 0 0 1-.79.21 1.16 1.16 0 0 1-.78-.2 1 1 0 0 1-.21-.76 1 1 0 0 1 .22-.77 1.12 1.12 0 0 1 .79-.2 1.08 1.08 0 0 1 .77.2 1 1 0 0 1 .21.75zm-.18 11.76a.18.18 0 0 1 0 .13.25.25 0 0 1-.13.09.7.7 0 0 1-.24.06 2.36 2.36 0 0 1-.4 0 2.18 2.18 0 0 1-.39 0 .7.7 0 0 1-.25-.06.22.22 0 0 1-.13-.09.25.25 0 0 1 0-.13v-8.79a.31.31 0 0 1 0-.13.27.27 0 0 1 .13-.09.7.7 0 0 1 .25-.06 2.18 2.18 0 0 1 .39 0 2.36 2.36 0 0 1 .4 0 .7.7 0 0 1 .24.06.33.33 0 0 1 .13.09.22.22 0 0 1 0 .13zM97 37.6a1.78 1.78 0 0 1 0 .44.45.45 0 0 1-.11.25 1 1 0 0 1-.24.15 2.42 2.42 0 0 1-.35.11l-.43.07a3.74 3.74 0 0 1-1.62-.15 1.83 1.83 0 0 1-.8-.55A2.15 2.15 0 0 1 93 37a5.24 5.24 0 0 1-.15-1.33v-5.13h-1.32a.28.28 0 0 1-.23-.16 1.08 1.08 0 0 1-.09-.51 1.35 1.35 0 0 1 0-.31.53.53 0 0 1 .06-.21.2.2 0 0 1 .1-.12.32.32 0 0 1 .14 0h1.22v-2.12a.28.28 0 0 1 0-.13.25.25 0 0 1 .12-.1 1.26 1.26 0 0 1 .25-.07h.8a1 1 0 0 1 .24.07.34.34 0 0 1 .13.1.28.28 0 0 1 0 .13v2.09h2.25a.32.32 0 0 1 .14 0 .25.25 0 0 1 .1.12.53.53 0 0 1 .06.21 1.42 1.42 0 0 1 0 .31 1.25 1.25 0 0 1-.08.51.28.28 0 0 1-.24.16h-2.12v4.9a2.8 2.8 0 0 0 .26 1.37 1 1 0 0 0 1 .46 1.64 1.64 0 0 0 .4 0l.31-.09.23-.1a.45.45 0 0 1 .18 0h.09a.2.2 0 0 1 .07.1.6.6 0 0 1 0 .18 1.32 1.32 0 0 1 .08.27zM103.43 38.48l-1.17 3.24a.48.48 0 0 1-.3.24 2.54 2.54 0 0 1-.72.08 2.42 2.42 0 0 1-.42 0 .44.44 0 0 1-.23-.08.22.22 0 0 1-.1-.15.57.57 0 0 1 .05-.24l1.21-3.06a.36.36 0 0 1-.16-.12.41.41 0 0 1-.11-.19l-3.14-8.4a.93.93 0 0 1-.07-.32.21.21 0 0 1 .07-.18.52.52 0 0 1 .26-.1H99.53a.83.83 0 0 1 .26.06.26.26 0 0 1 .14.11 1 1 0 0 1 .09.2l2.51 7 2.47-7.08a.39.39 0 0 1 .14-.24.73.73 0 0 1 .25-.08H106.31a.49.49 0 0 1 .26.1.2.2 0 0 1 .09.18.88.88 0 0 1-.06.29zM33 53.75a6.63 6.63 0 0 1-.28 2 4.24 4.24 0 0 1-.85 1.55 3.71 3.71 0 0 1-1.4 1 4.83 4.83 0 0 1-2 .37 5.19 5.19 0 0 1-1.89-.32 3.42 3.42 0 0 1-1.34-.94 3.89 3.89 0 0 1-.8-1.49 6.82 6.82 0 0 1-.27-2 6.51 6.51 0 0 1 .28-2 4.33 4.33 0 0 1 .84-1.56 3.71 3.71 0 0 1 1.4-1 5 5 0 0 1 2-.36 5.12 5.12 0 0 1 1.89.32 3.53 3.53 0 0 1 1.35.94 4.14 4.14 0 0 1 .8 1.5 6.68 6.68 0 0 1 .27 1.99zm-1.67.11a6.44 6.44 0 0 0-.13-1.35 3.41 3.41 0 0 0-.44-1.12 2.15 2.15 0 0 0-.83-.75 2.69 2.69 0 0 0-1.3-.28 2.8 2.8 0 0 0-1.24.25 2.36 2.36 0 0 0-.85.72 3.36 3.36 0 0 0-.5 1.1 6 6 0 0 0-.16 1.39 7.19 7.19 0 0 0 .12 1.35 3.08 3.08 0 0 0 .45 1.11 2.08 2.08 0 0 0 .83.75 2.69 2.69 0 0 0 1.3.28 2.76 2.76 0 0 0 1.23-.25 2.3 2.3 0 0 0 .86-.71 3.16 3.16 0 0 0 .49-1.1 5.53 5.53 0 0 0 .18-1.39zM40 45.84a1.32 1.32 0 0 1 0 .3.8.8 0 0 1 0 .18.35.35 0 0 1-.06.09.16.16 0 0 1-.1 0 .41.41 0 0 1-.17 0l-.25-.1-.35-.1a3 3 0 0 0-.46 0 1.46 1.46 0 0 0-.62.12 1 1 0 0 0-.41.36 1.77 1.77 0 0 0-.22.65 5.24 5.24 0 0 0-.07 1v1h2a.25.25 0 0 1 .13 0 .25.25 0 0 1 .1.12.73.73 0 0 1 .07.21 1.42 1.42 0 0 1 0 .31 1.25 1.25 0 0 1-.08.51.28.28 0 0 1-.24.16h-2v7.7a.18.18 0 0 1 0 .13.25.25 0 0 1-.13.09.76.76 0 0 1-.25.06 2.24 2.24 0 0 1-.39 0 2.18 2.18 0 0 1-.39 0 .7.7 0 0 1-.25-.06.22.22 0 0 1-.13-.09.18.18 0 0 1 0-.13v-7.7h-1.37a.27.27 0 0 1-.24-.16 1.29 1.29 0 0 1-.07-.51 2.82 2.82 0 0 1 0-.31 1.42 1.42 0 0 1 .06-.21.25.25 0 0 1 .1-.12.32.32 0 0 1 .14 0h1.25v-.91a6.11 6.11 0 0 1 .17-1.58 2.72 2.72 0 0 1 .52-1.08 2.21 2.21 0 0 1 .88-.62 3.7 3.7 0 0 1 1.26-.2 2.84 2.84 0 0 1 .66.07 2.51 2.51 0 0 1 .5.13 1.16 1.16 0 0 1 .24.13.35.35 0 0 1 .09.16.64.64 0 0 1 .06.22 3 3 0 0 1 .02.18zM55.71 52a8.9 8.9 0 0 1-.42 2.87 5.25 5.25 0 0 1-1.23 2 5 5 0 0 1-2 1.2 8.56 8.56 0 0 1-2.79.4h-2.66a.68.68 0 0 1-.42-.15.64.64 0 0 1-.2-.53V46.53a.64.64 0 0 1 .2-.53.68.68 0 0 1 .42-.15h2.86a8.05 8.05 0 0 1 2.78.42 5 5 0 0 1 3.06 3.15 7.86 7.86 0 0 1 .4 2.58zm-1.77.07a6.89 6.89 0 0 0-.26-1.91 4.12 4.12 0 0 0-.79-1.53 3.66 3.66 0 0 0-1.37-1 5.27 5.27 0 0 0-2.14-.37h-1.71v9.84h1.73a6.1 6.1 0 0 0 2-.3 3.51 3.51 0 0 0 1.38-.93 4 4 0 0 0 .84-1.57 8.13 8.13 0 0 0 .32-2.25zM63.2 50v.36a1.07 1.07 0 0 1 0 .23.4.4 0 0 1-.07.13.22.22 0 0 1-.13 0 .93.93 0 0 1-.19 0l-.25-.09-.32-.09a2.17 2.17 0 0 0-.38 0 1.36 1.36 0 0 0-.48.09 2.11 2.11 0 0 0-.49.33 3.57 3.57 0 0 0-.54.59c-.19.25-.4.55-.63.91v5.78a.18.18 0 0 1 0 .13.19.19 0 0 1-.12.09.7.7 0 0 1-.25.06 2.24 2.24 0 0 1-.4 0 2.3 2.3 0 0 1-.39 0 .76.76 0 0 1-.25-.06.19.19 0 0 1-.12-.09.18.18 0 0 1 0-.13v-8.79a.25.25 0 0 1 0-.13.25.25 0 0 1 .12-.1.64.64 0 0 1 .22-.06h.72a.58.58 0 0 1 .22.06.27.27 0 0 1 .11.1.18.18 0 0 1 0 .13v1.28a6.14 6.14 0 0 1 .68-.86 3.82 3.82 0 0 1 .6-.52 1.8 1.8 0 0 1 .56-.27 2.6 2.6 0 0 1 .56-.07h.29a2 2 0 0 1 .33 0l.32.09a.46.46 0 0 1 .2.1.22.22 0 0 1 .08.09v.11a1 1 0 0 1 0 .2v.4zM72.38 53.46a.61.61 0 0 1-.63.71H66a5.32 5.32 0 0 0 .15 1.32 2.53 2.53 0 0 0 .49 1 2.26 2.26 0 0 0 .89.65 3.6 3.6 0 0 0 1.35.22 5.42 5.42 0 0 0 1.12-.1 7.53 7.53 0 0 0 .8-.26c.24-.09.44-.16.59-.23a1 1 0 0 1 .35-.1.21.21 0 0 1 .12 0 .22.22 0 0 1 .09.1.78.78 0 0 1 .05.23 2.66 2.66 0 0 1 0 .3v.39a.29.29 0 0 1 0 .13.44.44 0 0 1-.08.11 1.45 1.45 0 0 1-.32.18 5.75 5.75 0 0 1-.68.24 8.69 8.69 0 0 1-1 .21 7.22 7.22 0 0 1-1.17.09 5.45 5.45 0 0 1-1.9-.3 3.42 3.42 0 0 1-1.37-.9 3.67 3.67 0 0 1-.84-1.5 6.85 6.85 0 0 1-.29-2.09 6.42 6.42 0 0 1 .3-2 4.2 4.2 0 0 1 .84-1.53 3.66 3.66 0 0 1 1.33-1 4.3 4.3 0 0 1 1.69-.33 4.22 4.22 0 0 1 1.76.33 3.22 3.22 0 0 1 1.2.9 3.62 3.62 0 0 1 .69 1.32 6 6 0 0 1 .22 1.61zM70.76 53a2.94 2.94 0 0 0-.57-2 2.14 2.14 0 0 0-1.76-.72 2.32 2.32 0 0 0-1.05.23 2.23 2.23 0 0 0-.76.59 2.8 2.8 0 0 0-.47.87A3.84 3.84 0 0 0 66 53zM80.15 55.85a2.71 2.71 0 0 1-.25 1.2 2.36 2.36 0 0 1-.71.89 3.09 3.09 0 0 1-1.09.54 4.74 4.74 0 0 1-1.4.19 5.1 5.1 0 0 1-.89-.07 4.68 4.68 0 0 1-.76-.19 3.2 3.2 0 0 1-.57-.23 1.67 1.67 0 0 1-.34-.22.52.52 0 0 1-.16-.28 1.86 1.86 0 0 1 0-.47 2.73 2.73 0 0 1 0-.32.83.83 0 0 1 0-.2.24.24 0 0 1 .08-.11.19.19 0 0 1 .12 0 .64.64 0 0 1 .32.13 4.63 4.63 0 0 0 .5.29 4.27 4.27 0 0 0 .73.29 3.14 3.14 0 0 0 1 .13 2.91 2.91 0 0 0 .75-.09 1.66 1.66 0 0 0 .57-.26 1.13 1.13 0 0 0 .38-.43 1.36 1.36 0 0 0 .13-.63 1 1 0 0 0-.19-.62 2 2 0 0 0-.5-.45 4.27 4.27 0 0 0-.71-.35l-.8-.31c-.28-.12-.55-.24-.81-.38a3.06 3.06 0 0 1-.71-.51 2.21 2.21 0 0 1-.5-.73 2.64 2.64 0 0 1 0-2 2.21 2.21 0 0 1 .6-.83 2.85 2.85 0 0 1 1-.57 4 4 0 0 1 1.4-.22 4.14 4.14 0 0 1 .7.06 4.66 4.66 0 0 1 .64.15 2.82 2.82 0 0 1 .48.19l.3.18a.61.61 0 0 1 .14.13.58.58 0 0 1 0 .14v.18a2 2 0 0 1 0 .26 2.53 2.53 0 0 1 0 .29.83.83 0 0 1 0 .2.24.24 0 0 1-.08.11.25.25 0 0 1-.11 0 .58.58 0 0 1-.26-.11 3.25 3.25 0 0 0-.43-.23 4.31 4.31 0 0 0-.62-.23 2.83 2.83 0 0 0-.81-.11 2.57 2.57 0 0 0-.72.09 1.5 1.5 0 0 0-.52.27 1.17 1.17 0 0 0-.3.4 1.25 1.25 0 0 0-.1.51 1 1 0 0 0 .19.64 1.87 1.87 0 0 0 .51.45 5.22 5.22 0 0 0 .71.36l.82.32a8.58 8.58 0 0 1 .82.37 3.08 3.08 0 0 1 .72.5 2.23 2.23 0 0 1 .5.7 2.26 2.26 0 0 1 .23.99zM89.88 58.24a.32.32 0 0 1 0 .14.19.19 0 0 1-.12.09.8.8 0 0 1-.22.05 1.62 1.62 0 0 1-.33 0 1.72 1.72 0 0 1-.34 0 .9.9 0 0 1-.22-.05.22.22 0 0 1-.13-.09.23.23 0 0 1 0-.14v-1.16A5.88 5.88 0 0 1 87 58.25a3.28 3.28 0 0 1-1.64.42 3.41 3.41 0 0 1-1.65-.38 3.16 3.16 0 0 1-1.11-1 4.57 4.57 0 0 1-.6-1.52 8.19 8.19 0 0 1-.2-1.77 8 8 0 0 1 .24-2 4.69 4.69 0 0 1 .73-1.56 3.14 3.14 0 0 1 1.18-1 3.7 3.7 0 0 1 1.64-.44 2.94 2.94 0 0 1 1.41.34 4.64 4.64 0 0 1 1.26 1v-5.11a.33.33 0 0 1 0-.13.24.24 0 0 1 .13-.1l.25-.06h.79l.24.06a.34.34 0 0 1 .13.1.22.22 0 0 1 0 .13zm-1.62-6.18A6.34 6.34 0 0 0 87 50.82a2.22 2.22 0 0 0-1.28-.42 1.84 1.84 0 0 0-1 .29 2.26 2.26 0 0 0-.7.77 3.61 3.61 0 0 0-.39 1.09 6.26 6.26 0 0 0-.12 1.23 8 8 0 0 0 .1 1.3 3.68 3.68 0 0 0 .36 1.12 2.19 2.19 0 0 0 .67.8 1.84 1.84 0 0 0 1.06.29 2.57 2.57 0 0 0 .62-.08 2.29 2.29 0 0 0 .61-.3 4.1 4.1 0 0 0 .65-.53 7.59 7.59 0 0 0 .72-.81zM100.24 53.46a.68.68 0 0 1-.2.55.67.67 0 0 1-.43.16h-5.79a5.32 5.32 0 0 0 .18 1.32 2.41 2.41 0 0 0 .49 1 2.19 2.19 0 0 0 .89.65 3.55 3.55 0 0 0 1.34.22 5.36 5.36 0 0 0 1.12-.1 7.76 7.76 0 0 0 .85-.23c.24-.09.44-.16.59-.23a.9.9 0 0 1 .35-.1.21.21 0 0 1 .12 0 .22.22 0 0 1 .09.1v.19a2.81 2.81 0 0 1 0 .3 1.41 1.41 0 0 1 0 .22.88.88 0 0 1 0 .17.5.5 0 0 1 0 .13.31.31 0 0 1-.09.11 1.1 1.1 0 0 1-.31.18 5.37 5.37 0 0 1-.69.24 8.48 8.48 0 0 1-1 .21 7.34 7.34 0 0 1-1.18.09 5.53 5.53 0 0 1-1.9-.3 3.49 3.49 0 0 1-1.37-.9 3.91 3.91 0 0 1-.84-1.5 6.87 6.87 0 0 1-.28-2.09 6.72 6.72 0 0 1 .29-2 4.37 4.37 0 0 1 .85-1.53 3.58 3.58 0 0 1 1.33-1 4.27 4.27 0 0 1 1.72-.32 4.22 4.22 0 0 1 1.76.33 3.3 3.3 0 0 1 1.2.9 3.62 3.62 0 0 1 .69 1.32 6 6 0 0 1 .22 1.61zM98.61 53a2.94 2.94 0 0 0-.56-2 2.15 2.15 0 0 0-1.76-.72 2.39 2.39 0 0 0-1.06.23 2.19 2.19 0 0 0-.75.59 2.61 2.61 0 0 0-.48.9 3.19 3.19 0 0 0-.19 1zM110.06 58.24a.18.18 0 0 1 0 .13.19.19 0 0 1-.12.09.7.7 0 0 1-.25.06 2.18 2.18 0 0 1-.39 0 2.36 2.36 0 0 1-.4 0 .7.7 0 0 1-.24-.06.25.25 0 0 1-.13-.09.25.25 0 0 1 0-.13v-5.15a5 5 0 0 0-.12-1.21 2.36 2.36 0 0 0-.34-.79 1.5 1.5 0 0 0-.58-.51 1.94 1.94 0 0 0-.82-.17 2 2 0 0 0-1.21.43 6 6 0 0 0-1.27 1.26v6.14a.25.25 0 0 1 0 .13.25.25 0 0 1-.13.09.7.7 0 0 1-.24.06 4 4 0 0 1-.8 0 .7.7 0 0 1-.24-.06.19.19 0 0 1-.13-.09.25.25 0 0 1 0-.13v-8.79a.25.25 0 0 1 0-.13.25.25 0 0 1 .12-.1.64.64 0 0 1 .23-.06h.71a.53.53 0 0 1 .22.06.31.31 0 0 1 .12.1.25.25 0 0 1 0 .13v1.16a5.26 5.26 0 0 1 1.48-1.21 3.16 3.16 0 0 1 1.49-.39 3.31 3.31 0 0 1 1.48.3 2.63 2.63 0 0 1 1 .8 3.16 3.16 0 0 1 .53 1.16 6.84 6.84 0 0 1 .16 1.61z"/></svg>