<svg id="Ebene_1" data-name="Ebene 1" xmlns="http://www.w3.org/2000/svg" viewBox="0 0 230.91 99.28"><defs><style>.cls-1{fill:#1d1d1b;}.cls-2{fill:#a89a00;}</style></defs><path class="cls-1" d="M45.74,61.67V4.32H40.16V63.21l5.58-1.54Z"/><path class="cls-1" d="M21.57,7.74c-.64,0-.92.67-1,1l0,.13H22a1.55,1.55,0,0,0,1-1l0-.14-1.4,0Z"/><path class="cls-1" d="M28.37,16A5.82,5.82,0,0,1,30,19.24l.07.34.15-.31a4.41,4.41,0,0,0,0-3.64,5.51,5.51,0,0,0-1.56-1.79,3.84,3.84,0,0,1-1.46-2l-.12-.37-.11.37a3.26,3.26,0,0,0,.37,2.75A7.18,7.18,0,0,0,28.37,16Z"/><path class="cls-1" d="M29.32,12.46a3.82,3.82,0,0,1,1.56,2.17L31,15l.11-.33a3.52,3.52,0,0,0-.41-2.91,4.33,4.33,0,0,0-1.42-1.27A3.06,3.06,0,0,1,27.91,9l-.16-.36-.06.39a3.18,3.18,0,0,0,.58,2.39,4.37,4.37,0,0,0,1.05,1Z"/><path class="cls-1" d="M26.38,19.28a5.88,5.88,0,0,1,1.55,3.81l0,.42.19-.38c.5-1,1-2.41.63-3.44a8,8,0,0,0-1.36-2.1,6.47,6.47,0,0,1-1.68-3.15L25.68,14l-.16.38a3.49,3.49,0,0,0-.29,3,6.11,6.11,0,0,0,1.15,1.83Z"/><path class="cls-1" d="M24,26A8.51,8.51,0,0,0,23,23.63a7.19,7.19,0,0,1-1.24-3.55v-.41l-.21.35a4,4,0,0,0-.74,3.13A8.09,8.09,0,0,0,21.89,26l.25.44A5.65,5.65,0,0,1,23,29.51v.4l.23-.33a5.3,5.3,0,0,0,.9-3.16l0-.19A1.84,1.84,0,0,0,24,26Z"/><path class="cls-1" d="M33.69,4.35h0l-31.81,0h0V48.07a.07.07,0,0,0,0,0,.09.09,0,0,0,0,.05v5c0,6.53,7,7.85,11.37,8.84L29,66.07l.3.07h0s1.63-.4,6.83-1.82v-60Zm-18.3,6.83c.49,1.21,1.25,1.35,1.77,1.29s1.76-.65,2.26-.72A1.58,1.58,0,0,1,21,12.4c-1.13-.35-2.45.62-3.58,1a1.45,1.45,0,0,1-1.58-.28,2.12,2.12,0,0,1-.46-2ZM26.81,31.06c1,4.56.54,7,.7,8.74s.75,2.55,1.52,2.63,1.26-.56,1.39-1.69a8.87,8.87,0,0,0-.08-2A15.27,15.27,0,0,0,29.66,36c-.32-1.06-.67-2.26-.91-3.39,0,0-.26-1.57-.26-2.11a5.45,5.45,0,0,1,1.73-3.32l.72-.88a3.74,3.74,0,0,0,.62-1.15c.15.36.31.77.46,1.22a16.74,16.74,0,0,1,.9,3.41,4.71,4.71,0,0,1-1.05,3A4.06,4.06,0,0,0,31,35.27c0,.16.07.69.17,1.43.14,1.06.34,2.51.36,3.26a6.22,6.22,0,0,1-.16,1.83,2.21,2.21,0,0,1-2,1.88,2.31,2.31,0,0,1-1.78-.79l-.13-.15-.07.19a12.75,12.75,0,0,0-.48,3.24c0,1.8,1.3,2.16,2.57,2.51s2.51.69,2.81,2.35c0,.09,0,.2,0,.3,0,.46,0,1.36,0,1.9a2.46,2.46,0,0,0-1.59-1A1.9,1.9,0,0,1,29.15,51l-.27-.72,0,.83a35.15,35.15,0,0,1-.27,4.82l0,.15.15,0H29a2.37,2.37,0,0,1,1.28.41,1.77,1.77,0,0,1,.61.78h0a7,7,0,0,1,.27.81l0,.05,0,0c.37.21.95.64,1,.92a3.38,3.38,0,0,1-1.43.34h0l0,0a2.63,2.63,0,0,1-1.55.91H29a1.94,1.94,0,0,1-1.6-.87l-.21.12A1.67,1.67,0,0,1,27,61.31a2.55,2.55,0,0,1-1.43.88h0l0,0c-.18.34-.53.87-.78.95a2.81,2.81,0,0,1-.4-1.22v0l0,0a2.26,2.26,0,0,1-.94-1.3,2.07,2.07,0,0,1,.6-1.89l.38-.32-.62.15a4.44,4.44,0,0,1-1,.17,1.49,1.49,0,0,1-.81-.23,2.94,2.94,0,0,1-1-1.37,2.87,2.87,0,0,1-.15-.37v0l0,0a3.22,3.22,0,0,1-1.13-.92,2.79,2.79,0,0,1,1.33-.39H21l0,0a2.51,2.51,0,0,1,1.63-.77,1.42,1.42,0,0,1,.3,0,3.13,3.13,0,0,1,1.56.49l.36.27.09.07.07-.09a2.82,2.82,0,0,0,.25-1.73c0-.16,0-.3,0-.42,0-.83-.73-1.52-1.54-2.22l-.37-.31c-1.23-1.05-2.63-2.23-2.74-4s1.32-3.26,2.27-4.3l.44-.49c.33-.38.46-.6.46-.77,0-.46-2.17-1.18-4-1.18-2,0-3.31.63-3.42,1.86a2.9,2.9,0,0,0,1.17,2.73c.56.38,1,.7,1,1.05a1.22,1.22,0,0,1-.46.87,1.71,1.71,0,0,0-.6,1.23c0,.39.32.66.65.94A1.77,1.77,0,0,1,19,50a1.88,1.88,0,0,1,0,.42v.2a3.75,3.75,0,0,1-.7,1.89c-.06-.4-.52-.74-1-1.09a5,5,0,0,1-.9-.8l-.15-.21a1.07,1.07,0,0,1-.08-1l.15-.4-.34.27a12.24,12.24,0,0,0-.94,1.06l-.2.25c-.1.12-.52.64-.62.75a1.55,1.55,0,0,0-.51.89l0,.12.13,0a2.62,2.62,0,0,1,1.39,1,2.86,2.86,0,0,1,.42,1.84v0l0,0a2.35,2.35,0,0,1,.54,1.15.88.88,0,0,1-.33,0,5.81,5.81,0,0,1-1.13-.17l0,0,0,0a4.22,4.22,0,0,1-.45.18,3,3,0,0,1-.88.13,2.69,2.69,0,0,1-.57-.06l-.23-.07h0a1.89,1.89,0,0,1-1.13-1.33l-.23,0a1.52,1.52,0,0,1-.4,1.28l-.15.16-.19.17a3.47,3.47,0,0,1-1.89.34h0l-.05,0a2.55,2.55,0,0,1-1,.65,2.49,2.49,0,0,1,0-1.21l0-.12,0,0A2.68,2.68,0,0,1,7,54.72,2.31,2.31,0,0,1,8.19,53l.52-.2-.56,0H7.8a1.42,1.42,0,0,1-1.33-.47,2.4,2.4,0,0,1-.57-1.65v0l0,0s-.11-.12-.23-.28l0,0a2.31,2.31,0,0,1-.5-.91.82.82,0,0,1,.43-.08,5,5,0,0,1,1,.13h0l0,0A2.81,2.81,0,0,1,8.07,49a2.75,2.75,0,0,1,.4,0c.69.09,1.39,1,1.58,1.33l0,.06h.06c.41,0,.84-.45,1.52-1.7a16.8,16.8,0,0,0,1.22-2.61c.09-.86-.46-1.15-1.35-2l-.75-.77,0,.37a2.28,2.28,0,0,1-1.27,2,1.94,1.94,0,0,0-1,1.26A7.79,7.79,0,0,1,7.15,44a2.7,2.7,0,0,1,1.38-2.12l.06-.05a3.26,3.26,0,0,0,.9-.87s0-.08,0-.27c-.15-.63-.61-2.52.52-3.73a5.87,5.87,0,0,1,3.77-1.63c2.35,0,4.63.31,8.9,2.64l.05,0a.58.58,0,0,0,.27.09l.13,0c.08,0,.32-.14-.28-1.62a28.87,28.87,0,0,0-2.65-4c-1.22-1.54-2.55-2.84-2.9-2.84s-.34.14-.42.3-.35.69-1.63,1.34c0-.4-.06-1.25-.58-1.46a1.31,1.31,0,0,0-.5-.1,1.14,1.14,0,0,0-.84.39l-.08.09.09.08a1.94,1.94,0,0,1,.7,1.24,1.59,1.59,0,0,1-.32,1c-.09.14-.2.28-.3.43l-.14.19v0a2.46,2.46,0,0,1-.09,1.3,3,3,0,0,1-1.1-.83l0,0h0a2.55,2.55,0,0,1-1.61-.68,1.33,1.33,0,0,1-.23-.3l-.1-.17a2.1,2.1,0,0,1-.11-1.47l-.22-.08a1.94,1.94,0,0,1-1.59,1H8a3.15,3.15,0,0,1-1.56-.57l0,0H6.31a5,5,0,0,1-.79.08,1,1,0,0,1-.45-.07,2.82,2.82,0,0,1,.72-1.1l0,0v-.05a2.42,2.42,0,0,1,.58-1.56,2.42,2.42,0,0,1,1.72-.65,1.75,1.75,0,0,1,.4,0l.07-.22a2,2,0,0,1-1.3-1.41.29.29,0,0,1,0-.09,2.31,2.31,0,0,1,.39-1.64l0,0v0a3,3,0,0,1,0-1.38,2.63,2.63,0,0,1,1.08.73l0,0h.1a2.73,2.73,0,0,1,1.78.48c.29.24.61.77.56,2v.25l.08,0,.13,0a1,1,0,0,0,.48-.18l.22-.16a14.3,14.3,0,0,0,2.25-2.54l0-.05,0-.05c-.24-.67-2.21-5-2.48-5.42l-.28-.42.06.58c.14,1.25-.42,1.58-1,2.14A2.75,2.75,0,0,0,9.8,22a5.2,5.2,0,0,1-1.16-2.51,3,3,0,0,1,.87-1.88,4.65,4.65,0,0,0,.87-1.33,2.29,2.29,0,0,0-.77-2l-.09,0-.06.09a1.74,1.74,0,0,1-1.11.82,1.54,1.54,0,0,1-.43.06,3.86,3.86,0,0,1-1.4-.36l0,0H6.43a3.84,3.84,0,0,1-1.13.26.61.61,0,0,1-.24,0,3,3,0,0,1,.6-1.3l0,0v0A2.44,2.44,0,0,1,5.9,12a2.06,2.06,0,0,1,1.77-1h.06l0-.23A1.74,1.74,0,0,1,6.41,9.6,2.39,2.39,0,0,1,6.58,8l0-.05,0,0a2.29,2.29,0,0,1-.3-1.18h0a3.58,3.58,0,0,1,1.19.44l0,0h0a5,5,0,0,1,.85-.1,1.58,1.58,0,0,1,.78.18,1.94,1.94,0,0,1,1,1.64h.23a1.78,1.78,0,0,1,1.22-1.45,1.65,1.65,0,0,1,.58-.1,4.13,4.13,0,0,1,1.23.25l0,0,0,0a5,5,0,0,1,1.27-.31.39.39,0,0,1,.17,0,2.48,2.48,0,0,1-.51,1.25l0,0v.09a2.72,2.72,0,0,1-.07,1.91,2.81,2.81,0,0,1-1.53,1.14l-.45.12-.11,0,0,.1a71.55,71.55,0,0,0,6.43,7.21h.05c.8,0,2.7-2.17,3.54-3.38.65-.94.58-1.13.54-1.21-.12-.3-.29-.45-.52-.45a1.82,1.82,0,0,0-.93.5,2.92,2.92,0,0,1-1.56.77h0c-.58,0-1.15-.59-1.2-1.73,0-.25.1-.25.15-.25a1.4,1.4,0,0,1,.33.08,2.42,2.42,0,0,0,.71.14,1.16,1.16,0,0,0,.42-.07,1.79,1.79,0,0,0,.78-.62h0l.06-.09.06-.1h0a1.34,1.34,0,0,0,.16-1,1.52,1.52,0,0,0-1.6-1.25,3.26,3.26,0,0,0-2.06.83,3,3,0,0,1-.27-.84c0-.15-.07-.29-.11-.43a5.76,5.76,0,0,1,0-1.51l.1-.17c.13-.24.13-.24.84-.28L19.7,8h.1v-.1c0-.9,1.05-1.33,3.15-1.33.55,0,1.18,0,1.87.09h.05a1.06,1.06,0,0,0,.51-.39,1.53,1.53,0,0,1,1.1-.58h.06c.48,0,.83.75.93,1l0,0,.06,0c2.84.56,5.36,3.38,5.36,7.62,0,3-1.41,6.83-3.32,9.85-.47.75-2.19,3.11-2.8,3.9-.4.51-.35,1.27,0,2.87Z"/><path class="cls-1" d="M25.33,20.5a6.8,6.8,0,0,1-1.48-3.26l0-.41-.18.38a3.7,3.7,0,0,0-.43,3,7.6,7.6,0,0,0,1.31,2.58,5.73,5.73,0,0,1,1.31,3.25l0,.4.19-.35a4.73,4.73,0,0,0,.49-3.47,8.12,8.12,0,0,0-1.2-2.14Z"/><path class="cls-1" d="M55.82,4.32H49.7V60.56c3.23-1.18,6.12-3.22,6.12-7.42V4.32Z"/><path class="cls-1" d="M98.12,9.69c0-2.83-.2-3.67-1.86-3.92l-.87-.12a.62.62,0,0,1,0-1c3.36-.2,6.56-.32,9.92-.32a24.3,24.3,0,0,1,8.7,1.21c5.33,2,8,6.59,8,11.92a13.28,13.28,0,0,1-6.92,12,18.79,18.79,0,0,1-8.85,1.94c-2.53,0-5.06-.32-6.44-.32-1.66,0-3.08,0-4.94.12a.79.79,0,0,1-.08-1l.91-.12c2.29-.33,2.37-.81,2.37-5.05V9.69Zm3.24,14.42c0,2.14.12,3.43.79,4.4.87,1.25,2.37,1.66,4.86,1.66,7.67,0,11.11-5.13,11.11-12.64,0-4.45-2.1-12-12.45-12-2.33,0-3.6.33-3.91.57s-.4,1.25-.4,3.07v14.9Z"/><path class="cls-1" d="M126.89,19.5c0-1.57,0-1.77-1.07-2.5l-.35-.24a.57.57,0,0,1,0-.73,29.6,29.6,0,0,0,4-2c.19,0,.31.12.31.29v2.34q0,.3.12.36c1.38-1.17,2.89-2.42,4.35-2.42a1.65,1.65,0,0,1,1.78,1.62,1.77,1.77,0,0,1-1.7,1.85,1.53,1.53,0,0,1-.87-.28,3.24,3.24,0,0,0-1.74-.65,1.75,1.75,0,0,0-1.42.81,6.21,6.21,0,0,0-.52,3.11v5.49c0,2.91.09,3.4,1.59,3.52l1.42.12a.72.72,0,0,1-.08,1c-1.86-.08-3-.12-4.39-.12s-2.61,0-3.64.12a.72.72,0,0,1-.07-1l.75-.12c1.46-.25,1.5-.61,1.5-3.52V19.5Z"/><path class="cls-1" d="M141.27,20.76c-1,0-1.07.08-1.07,1.09,0,4.08,2.33,7.55,6.56,7.55a4.23,4.23,0,0,0,3.64-2,.52.52,0,0,1,.71.49,6.89,6.89,0,0,1-6.21,3.75A7.05,7.05,0,0,1,139.17,29a8.76,8.76,0,0,1-1.66-5.25c0-5,3.21-9.13,8-9.13,3.4,0,5.61,2.38,5.61,4.8a2.49,2.49,0,0,1-.16,1c-.12.25-.67.29-2.33.29Zm2.45-1.21c2.92,0,3.79-.17,4.11-.41.12-.08.24-.24.24-.77,0-1.13-.75-2.54-3-2.54s-4.34,2.18-4.38,3.51c0,.08,0,.21.27.21Z"/><path class="cls-1" d="M164,15.35a9.51,9.51,0,0,1,.64,3.27.68.68,0,0,1-.95.12c-.67-1.78-1.86-2.95-3.48-2.95a2.36,2.36,0,0,0-2.53,2.46c0,1.66,1.66,2.55,3,3.36,2.09,1.21,4,2.58,4,5.45,0,3.07-2.77,4.6-5.7,4.6a6.43,6.43,0,0,1-4.22-1.21,12.14,12.14,0,0,1-.48-4.08.67.67,0,0,1,.91,0c.67,2.22,1.94,4.16,4.19,4.16a2.46,2.46,0,0,0,2.65-2.58c0-1.86-1.58-2.87-3.05-3.72-2.29-1.33-3.91-2.75-3.91-5,0-2.95,2.37-4.6,5.38-4.6a6.73,6.73,0,0,1,3.47.73Z"/><path class="cls-1" d="M183.49,25.2c0,3.19,0,4.68,1.15,4.68a6.41,6.41,0,0,0,1.7-.4c.27.08.32,1.09,0,1.29a29.43,29.43,0,0,0-5.22,1.3c-.23,0-.43-.13-.43-.33v-.68a4.59,4.59,0,0,0-.08-1.26h-.16a8.07,8.07,0,0,1-5,1.86c-4.39,0-7.31-3.51-7.31-7.75,0-5.66,4.19-9.29,9.56-9.29a8,8,0,0,1,2.65.36c.2,0,.24-.24.24-.56V8.32c0-2.38,0-2.63-1.23-3.35L179,4.72a.61.61,0,0,1,0-.8,27.54,27.54,0,0,0,4.26-1.7.44.44,0,0,1,.4.24c0,1.21-.12,3.23-.12,5V25.2Zm-2.92-6.06a2.35,2.35,0,0,0-.44-1.57,4.09,4.09,0,0,0-3.32-1.7c-3.59,0-5.45,3.19-5.45,6.71,0,3.67,2,7.14,5.89,7.14a4.73,4.73,0,0,0,3-1.13,2.46,2.46,0,0,0,.28-1.49v-8Z"/><path class="cls-1" d="M191.79,20.76c-1,0-1.07.08-1.07,1.09,0,4.08,2.33,7.55,6.56,7.55a4.24,4.24,0,0,0,3.64-2,.52.52,0,0,1,.71.49,6.9,6.9,0,0,1-6.21,3.75A7,7,0,0,1,189.69,29,8.69,8.69,0,0,1,188,23.75c0-5,3.19-9.13,7.93-9.13,3.41,0,5.62,2.38,5.62,4.8a2.49,2.49,0,0,1-.16,1c-.12.25-.67.29-2.33.29Zm2.45-1.22c2.92,0,3.79-.16,4.11-.4.12-.08.23-.24.23-.77,0-1.13-.75-2.54-3-2.54s-4.35,2.18-4.39,3.51c0,.08,0,.2.28.2Z"/><path class="cls-1" d="M205.78,19.5c0-1.57,0-1.77-1.07-2.5l-.35-.24a.57.57,0,0,1,0-.73,20.64,20.64,0,0,0,4-2,.45.45,0,0,1,.43.29c-.08.92-.08,1.53-.08,1.89a.42.42,0,0,0,.44.45,10.7,10.7,0,0,1,5.53-2.06c3.28,0,4.63,2.3,4.63,5v6.94c0,2.91.08,3.31,1.5,3.52l.87.12a.71.71,0,0,1-.08,1c-1.19-.08-2.33-.12-3.71-.12s-2.61,0-3.68.12a.71.71,0,0,1-.08-1l.75-.12c1.46-.25,1.5-.61,1.5-3.52v-6c0-2.31-1-4-3.71-4A4.26,4.26,0,0,0,209.3,18a3.42,3.42,0,0,0-.6,2.42v6.18c0,2.91.08,3.27,1.5,3.52l.72.12a.72.72,0,0,1-.08,1c-1.07-.08-2.21-.12-3.6-.12s-2.61,0-3.71.12a.71.71,0,0,1-.08-1l.83-.12c1.46-.21,1.5-.61,1.5-3.52V19.5Z"/><path class="cls-1" d="M224.79,29.44a2.22,2.22,0,1,1,4.43,0A2.11,2.11,0,0,1,227,31.66a2.18,2.18,0,0,1-2.22-2.22Z"/><path class="cls-2" d="M98.12,43.15c0-4.24-.08-4.72-2.37-5L94.84,38a.79.79,0,0,1,.08-1c1.86.08,3.28.12,4.94.12,1.38,0,3.91-.32,6.44-.32a18.79,18.79,0,0,1,8.85,1.94,13.28,13.28,0,0,1,6.92,12c0,5.34-2.69,9.94-8,11.92a24.3,24.3,0,0,1-8.7,1.21c-3.36,0-6.56-.12-9.92-.32a.62.62,0,0,1,0-1l.87-.12c1.66-.25,1.86-1.1,1.86-3.92V43.15ZM101.36,59c0,1.82.08,2.83.4,3.07s1.58.57,3.91.57c10.35,0,12.45-7.51,12.45-12C118.12,43.15,114.68,38,107,38c-2.49,0-4,.41-4.86,1.66-.67,1-.79,2.26-.79,4.4V59Z"/><path class="cls-2" d="M126.89,41.62c0-2.91,0-3.27-1.5-3.52l-.75-.12a.72.72,0,0,1,.07-1c1,.08,2.22.12,3.64.12s2.53,0,4.39-.12a.71.71,0,0,1,.08,1l-1.42.12c-1.5.12-1.58.61-1.58,3.52v5.49a6.23,6.23,0,0,0,.51,3.11,1.75,1.75,0,0,0,1.42.81,3.24,3.24,0,0,0,1.74-.65,1.53,1.53,0,0,1,.87-.28,1.77,1.77,0,0,1,1.7,1.86,1.65,1.65,0,0,1-1.78,1.61c-1.46,0-3-1.25-4.35-2.42-.08,0-.11.16-.11.36v2.34c0,.17-.13.25-.32.29a30.1,30.1,0,0,0-4-2,.56.56,0,0,1,0-.73l.35-.24c1.07-.73,1.07-.93,1.07-2.5V41.62Z"/><path class="cls-2" d="M148.58,47.43c1.66,0,2.22,0,2.33.28a2.57,2.57,0,0,1,.16,1c0,2.43-2.21,4.81-5.61,4.81-4.74,0-8-4.16-8-9.13a8.76,8.76,0,0,1,1.66-5.25,7.05,7.05,0,0,1,5.73-2.66,6.89,6.89,0,0,1,6.21,3.75.52.52,0,0,1-.71.49,4.23,4.23,0,0,0-3.64-2c-4.23,0-6.56,3.47-6.56,7.55,0,1,0,1.09,1.07,1.09Zm-7.67,1.21c-.27,0-.27.12-.27.21,0,1.33,2.05,3.51,4.38,3.51s3-1.41,3-2.55c0-.52-.12-.68-.24-.76-.32-.24-1.19-.41-4.11-.41Z"/><path class="cls-2" d="M160.53,53.57c-3,0-5.38-1.66-5.38-4.6,0-2.22,1.62-3.64,3.92-5,1.46-.85,3-1.86,3-3.72a2.46,2.46,0,0,0-2.65-2.58c-2.25,0-3.52,1.94-4.19,4.16a.67.67,0,0,1-.91,0,12.14,12.14,0,0,1,.48-4.08,6.45,6.45,0,0,1,4.23-1.21c2.92,0,5.69,1.53,5.69,4.6,0,2.87-1.94,4.24-4,5.45-1.39.81-3,1.7-3,3.36a2.36,2.36,0,0,0,2.53,2.46c1.62,0,2.81-1.17,3.48-2.95a.68.68,0,0,1,.95.12,9.81,9.81,0,0,1-.63,3.28,7,7,0,0,1-3.48.72Z"/><path class="cls-2" d="M183.49,60.72c0,1.78.09,3.79.12,5a.44.44,0,0,1-.39.24,28,28,0,0,0-4.27-1.7.61.61,0,0,1,0-.8l.39-.25c1.19-.72,1.23-1,1.23-3.35v-6.1c0-.32,0-.56-.24-.56a8,8,0,0,1-2.65.36c-5.37,0-9.56-3.63-9.56-9.29,0-4.24,2.92-7.75,7.31-7.75a8.13,8.13,0,0,1,5,1.86h.16a4.63,4.63,0,0,0,.08-1.26v-.68c0-.2.2-.33.43-.33a28.58,28.58,0,0,0,5.22,1.3c.36.2.31,1.21,0,1.29a6.41,6.41,0,0,0-1.7-.4c-1.11,0-1.15,1.49-1.15,4.68V60.72Zm-2.92-19.63a2.46,2.46,0,0,0-.28-1.49,4.73,4.73,0,0,0-3-1.13c-3.87,0-5.89,3.47-5.89,7.14s1.86,6.71,5.45,6.71a4.09,4.09,0,0,0,3.32-1.7,2.35,2.35,0,0,0,.44-1.57v-8Z"/><path class="cls-2" d="M199.1,47.43c1.66,0,2.22,0,2.33.28a2.57,2.57,0,0,1,.16,1c0,2.43-2.21,4.81-5.62,4.81-4.74,0-7.93-4.16-7.93-9.13a8.75,8.75,0,0,1,1.65-5.25,7,7,0,0,1,5.73-2.66,6.9,6.9,0,0,1,6.21,3.75.52.52,0,0,1-.71.49,4.24,4.24,0,0,0-3.64-2c-4.23,0-6.56,3.47-6.56,7.55,0,1,0,1.09,1.07,1.09Zm-7.67,1.21c-.28,0-.28.12-.28.21,0,1.33,2.06,3.51,4.39,3.51s3-1.41,3-2.55c0-.52-.11-.68-.23-.76-.32-.24-1.19-.41-4.11-.41Z"/><path class="cls-2" d="M205.78,41.62c0-2.91,0-3.31-1.5-3.52l-.83-.12a.71.71,0,0,1,.08-1c1.1.08,2.29.12,3.71.12s2.53,0,3.6-.12a.72.72,0,0,1,.08,1l-.72.12c-1.41.25-1.5.61-1.5,3.52V47.8a3.47,3.47,0,0,0,.6,2.42,4.26,4.26,0,0,0,3.36,1.41c2.68,0,3.71-1.69,3.71-4v-6c0-2.91,0-3.27-1.5-3.52l-.75-.12a.71.71,0,0,1,.08-1c1.07.08,2.25.12,3.68.12s2.52,0,3.71-.12a.71.71,0,0,1,.08,1l-.87.12c-1.42.21-1.5.61-1.5,3.52v6.94c0,2.71-1.35,5-4.63,5a10.7,10.7,0,0,1-5.53-2.06.42.42,0,0,0-.44.45,17.94,17.94,0,0,0,.09,1.89.47.47,0,0,1-.44.29,20.64,20.64,0,0,0-4-2,.57.57,0,0,1,0-.73l.35-.24c1.07-.73,1.07-.93,1.07-2.5V41.62Z"/><path class="cls-2" d="M227,36.53a2.11,2.11,0,0,1,2.21,2.22,2.22,2.22,0,1,1-4.43,0A2.18,2.18,0,0,1,227,36.53Z"/><polygon class="cls-1" points="77.46 96.72 76.41 96.72 76.41 2.22 77.46 2.22 77.46 96.72 77.46 96.72"/></svg>